<svg width="178" height="40" viewBox="0 0 178 40" fill="none" xmlns="http://www.w3.org/2000/svg">
<g clip-path="url(#clip0_2_27072)">
<path fill-rule="evenodd" clip-rule="evenodd" d="M29.0429 19.2887C29.2978 16.4257 33.4177 16.1485 34.0602 18.9164C34.8747 22.9062 28.798 23.3602 29.0429 19.2887ZM37.3633 33.9898C40.8985 33.6573 40.5677 28.0861 36.9719 28.2381C34.2384 28.5085 32.4492 25.7994 33.25 23.2213C34.3564 19.4975 38.4199 22.1353 39.5613 18.8974C40.0674 17.5929 39.5689 16.2286 38.4436 15.463C37.2472 14.5589 38.2199 12.8306 39.0311 12.095C43.6703 9.60874 40.681 4.30508 36.9567 6.53452C34.4782 8.729 36.6364 10.1307 36.9202 12.4329C37.0487 14.2545 35.5229 15.8344 33.857 16.2174C32.0138 16.6806 30.6435 15.3853 29.7546 13.8856C28.2853 11.7095 24.7349 12.848 24.7027 15.4809H24.7003C24.4511 17.003 22.6766 17.0088 21.5622 16.6505C19.7654 15.6484 17.5517 15.1843 16.4752 17.4472C14.9898 20.7506 19.8631 23.2417 21.5328 19.9752C22.1919 18.6217 23.5878 17.5691 25.1144 17.8667C27.3386 18.09 29.1462 20.3845 28.29 22.6373C27.6494 24.0273 26.9425 25.6324 28.1327 26.9432C28.9899 28.0579 30.4255 28.2895 31.6366 27.6462C33.1064 27.2583 33.8646 28.6847 34.147 29.8742C34.1962 31.9687 34.9155 34.167 37.3633 33.9898Z" fill="white"></path>
<path fill-rule="evenodd" clip-rule="evenodd" d="M61.1794 21.9048C60.9114 22.5148 60.5479 23.0391 60.0883 23.4778C59.6287 23.9165 59.0929 24.2624 58.4802 24.5154C57.8676 24.7679 57.2248 24.8944 56.5507 24.8944C55.7851 24.8944 55.0843 24.7641 54.4489 24.5038C53.8135 24.2436 53.2697 23.8905 52.818 23.4441C52.3664 22.9982 52.0177 22.4739 51.773 21.8712C51.5279 21.2689 51.4056 20.6258 51.4056 19.9413C51.4056 19.1682 51.5432 18.4688 51.8191 17.8444C52.095 17.2196 52.4699 16.6919 52.9443 16.2599C53.4193 15.8289 53.967 15.4941 54.5871 15.256C55.2071 15.0184 55.8618 14.8991 56.5507 14.8991C57.2703 14.8991 57.9365 15.0367 58.5496 15.3118C59.1617 15.5874 59.6936 15.9516 60.1458 16.4052C60.5974 16.8593 60.9496 17.3908 61.2022 18.0003C61.4552 18.6102 61.5815 19.2495 61.5815 19.9191C61.5815 20.633 61.4473 21.2949 61.1794 21.9048ZM61.4894 15.903H61.4433C61.1066 15.4273 60.7277 15.0328 60.3067 14.7206C59.8853 14.4084 59.4524 14.1626 59.0087 13.9847C58.5644 13.8062 58.1281 13.6797 57.6992 13.6051C57.2703 13.531 56.8875 13.4935 56.5507 13.4935C55.5246 13.4935 54.5945 13.672 53.76 14.0289C52.925 14.3858 52.2173 14.8625 51.6354 15.4571C51.053 16.0521 50.6018 16.7323 50.2799 17.4986C49.9584 18.2649 49.7975 19.0566 49.7975 19.8744C49.7975 20.7523 49.9619 21.5811 50.2913 22.3623C50.6206 23.143 51.0841 23.8232 51.6814 24.4038C52.2782 24.9834 52.9904 25.4447 53.8174 25.7867C54.6445 26.1288 55.5553 26.3 56.5507 26.3C56.8875 26.3 57.2664 26.2625 57.6878 26.1884C58.1088 26.1138 58.5456 25.9878 58.9973 25.8089C59.449 25.6304 59.8853 25.3851 60.3067 25.0729C60.7277 24.7602 61.1066 24.359 61.4433 23.8684H61.4894V26.0099H63.0975V9.5H61.4894V15.903Z" fill="white"></path>
<path fill-rule="evenodd" clip-rule="evenodd" d="M65.4748 18.7927C65.5833 18.0513 65.8123 17.4064 66.1618 16.8578C66.5113 16.3098 66.9186 15.8576 67.3846 15.5024C67.8507 15.1472 68.3513 14.8849 68.8872 14.7146C69.423 14.5447 69.9388 14.4598 70.4359 14.4598C70.9482 14.4598 71.4684 14.5447 71.9967 14.7146C72.5245 14.8849 73.0212 15.1472 73.4872 15.5024C73.9533 15.8576 74.3605 16.3098 74.7101 16.8578C75.0596 17.4064 75.2961 18.0513 75.4207 18.7927H65.4748ZM76.0961 16.2438C75.8631 15.8576 75.5678 15.4715 75.2108 15.0853C74.8537 14.6996 74.4384 14.3519 73.9648 14.0426C73.4908 13.7339 72.9554 13.4831 72.3573 13.2893C71.7597 13.0964 71.1114 13 70.4128 13C69.4808 13.0155 68.615 13.2048 67.8155 13.5675C67.0155 13.9307 66.317 14.4133 65.7194 15.0158C65.1213 15.6183 64.6517 16.3213 64.3102 17.1246C63.9682 17.9274 63.7975 18.7777 63.7975 19.673C63.7975 20.6157 63.9763 21.4885 64.3333 22.2918C64.6904 23.0952 65.172 23.7941 65.7776 24.3886C66.3833 24.9831 67.0898 25.4507 67.8974 25.7904C68.7044 26.1301 69.5511 26.3 70.4359 26.3C71.1656 26.3 71.8606 26.1881 72.5205 25.9643C73.1804 25.7405 73.786 25.4277 74.3374 25.0261C74.8884 24.6244 75.3659 24.1533 75.7697 23.6122C76.1735 23.0717 76.4838 22.4852 76.7018 21.8512H74.9777C74.8381 22.2533 74.6287 22.6315 74.349 22.9867C74.0698 23.3419 73.7353 23.6552 73.3471 23.925C72.9594 24.1957 72.5165 24.4116 72.0198 24.5739C71.5227 24.7363 70.9868 24.8252 70.4128 24.8402C69.7916 24.8402 69.19 24.7168 68.6075 24.4695C68.0249 24.2227 67.5047 23.8905 67.0467 23.4733C66.5887 23.0562 66.22 22.5696 65.9403 22.0135C65.6611 21.4575 65.5054 20.8705 65.4748 20.2525H77.0744C77.0744 20.1756 77.0779 20.0981 77.0859 20.0207C77.0935 19.9438 77.0975 19.8668 77.0975 19.7889C77.0975 19.2328 77.0237 18.6538 76.876 18.0513C76.7284 17.4488 76.4687 16.8463 76.0961 16.2438Z" fill="white"></path>
<path fill-rule="evenodd" clip-rule="evenodd" d="M78.0748 18.7927C78.1833 18.0513 78.4123 17.4064 78.7618 16.8578C79.1114 16.3098 79.5186 15.8576 79.9847 15.5024C80.4507 15.1472 80.9514 14.8849 81.4872 14.7146C82.0231 14.5447 82.5388 14.4598 83.036 14.4598C83.5487 14.4598 84.0685 14.5447 84.5968 14.7146C85.1246 14.8849 85.6212 15.1472 86.0873 15.5024C86.5533 15.8576 86.9606 16.3098 87.3101 16.8578C87.6596 17.4064 87.8962 18.0513 88.0207 18.7927H78.0748ZM88.6962 16.2438C88.4631 15.8576 88.1678 15.4715 87.8108 15.0853C87.4537 14.6996 87.0384 14.3519 86.5649 14.0426C86.0908 13.7339 85.5555 13.4831 84.9573 13.2893C84.3597 13.0964 83.7114 13 83.0129 13C82.0808 13.0155 81.215 13.2048 80.4155 13.5675C79.6156 13.9307 78.917 14.4133 78.3194 15.0158C77.7213 15.6183 77.2517 16.3213 76.9103 17.1246C76.5683 17.9274 76.3975 18.7777 76.3975 19.673C76.3975 20.6157 76.5763 21.4885 76.9334 22.2918C77.2904 23.0952 77.772 23.7941 78.3777 24.3886C78.9833 24.9831 79.6899 25.4507 80.4974 25.7904C81.3044 26.1301 82.1511 26.3 83.036 26.3C83.7657 26.3 84.4607 26.1881 85.1206 25.9643C85.7804 25.7405 86.3861 25.4277 86.9375 25.0261C87.4884 24.6244 87.966 24.1533 88.3697 23.6122C88.7735 23.0717 89.0838 22.4852 89.3018 21.8512H87.5778C87.4382 22.2533 87.2288 22.6315 86.949 22.9867C86.6698 23.3419 86.3354 23.6552 85.9472 23.925C85.5595 24.1957 85.1165 24.4116 84.6199 24.5739C84.1227 24.7363 83.5869 24.8252 83.0129 24.8402C82.3917 24.8402 81.79 24.7168 81.2075 24.4695C80.625 24.2227 80.1047 23.8905 79.6472 23.4733C79.1887 23.0562 78.8201 22.5696 78.5404 22.0135C78.2611 21.4575 78.1055 20.8705 78.0748 20.2525H89.6744C89.6744 20.1756 89.6779 20.0981 89.686 20.0207C89.6935 19.9438 89.6975 19.8668 89.6975 19.7889C89.6975 19.2328 89.6237 18.6538 89.4761 18.0513C89.3284 17.4488 89.0688 16.8463 88.6962 16.2438Z" fill="white"></path>
<path fill-rule="evenodd" clip-rule="evenodd" d="M101.022 22.0776C100.777 22.6798 100.429 23.2042 99.9769 23.6506C99.5252 24.097 98.9814 24.45 98.3459 24.7103C97.7105 24.9705 97.0097 25.1009 96.2445 25.1009C95.5699 25.1009 94.9271 24.9744 94.3144 24.7213C93.7018 24.4688 93.1659 24.1229 92.7068 23.6842C92.2472 23.2455 91.8831 22.7212 91.6157 22.1113C91.3473 21.5013 91.2135 20.8394 91.2135 20.1256C91.2135 19.456 91.3398 18.8167 91.5924 18.2067C91.845 17.5973 92.1932 17.0652 92.6379 16.6116C93.0817 16.158 93.6141 15.7939 94.2342 15.5182C94.8543 15.2431 95.5239 15.1055 96.2445 15.1055C96.9329 15.1055 97.5877 15.2248 98.2082 15.4624C98.8283 15.7006 99.3756 16.0354 99.8506 16.4664C100.325 16.8983 100.7 17.426 100.976 18.0509C101.252 18.6753 101.39 19.3747 101.39 20.1477C101.39 20.8322 101.267 21.4753 101.022 22.0776ZM102.515 17.705C102.194 16.9387 101.742 16.2586 101.16 15.663C100.578 15.0685 99.8699 14.5923 99.0353 14.2353C98.2003 13.8784 97.2702 13.7 96.2445 13.7C95.9072 13.7 95.5278 13.7336 95.1069 13.8005C94.6859 13.8674 94.257 13.99 93.8206 14.1685C93.3843 14.3469 92.9554 14.5961 92.5344 14.916C92.1129 15.2359 91.7187 15.6486 91.3512 16.1542H91.3052V14.0126H89.6975V30.5H91.3052V24.0743H91.3512C91.7034 24.565 92.0941 24.9705 92.523 25.2904C92.9514 25.6103 93.3878 25.8594 93.832 26.0379C94.2763 26.2164 94.7087 26.339 95.1301 26.4059C95.5511 26.4728 95.9226 26.5064 96.2445 26.5064C97.2241 26.5064 98.128 26.3352 98.9546 25.9932C99.7817 25.6512 100.494 25.1899 101.091 24.6102C101.689 24.0296 102.156 23.3494 102.492 22.5682C102.829 21.7875 102.998 20.9587 102.998 20.0808C102.998 19.2631 102.837 18.4713 102.515 17.705Z" fill="white"></path>
<path fill-rule="evenodd" clip-rule="evenodd" d="M107.198 7.40002C106.426 7.40002 105.766 7.67018 105.219 8.20994C104.671 8.75026 104.398 9.41343 104.398 10.2C104.398 10.9684 104.676 11.6276 105.232 12.1765C105.788 12.7253 106.444 13 107.198 13C107.951 13 108.606 12.7253 109.163 12.1765C109.719 11.6276 109.998 10.9684 109.998 10.2C109.998 9.41343 109.724 8.75026 109.176 8.20994C108.629 7.67018 107.969 7.40002 107.198 7.40002Z" fill="white"></path>
<path fill-rule="evenodd" clip-rule="evenodd" d="M104.125 13.7V14.0866C104.563 14.2158 104.927 14.4212 105.217 14.7032C105.507 14.9851 105.652 15.4885 105.652 16.2137V23.8281C105.652 24.7792 105.577 25.6332 105.429 26.3905C105.28 27.1478 105.01 27.8565 104.618 28.5176C104.226 29.1782 103.687 29.7747 102.997 30.3066L103.045 30.5C104.203 30.4839 105.311 30.2255 106.369 29.7261C107.425 29.2268 108.294 28.477 108.976 27.4783C109.657 26.4791 109.997 25.2626 109.997 23.8281V13.7H105.652H104.125Z" fill="white"></path>
<path fill-rule="evenodd" clip-rule="evenodd" d="M123.895 23.6139V13.7H119.55H118.417V14.0905C118.741 14.2211 119.01 14.429 119.226 14.7134C119.442 14.9982 119.55 15.5072 119.55 16.2393V23.0968C119.347 23.2081 119.137 23.3073 118.914 23.3822C118.598 23.4879 118.286 23.5329 117.978 23.5163C117.531 23.5001 117.18 23.3452 116.927 23.0523C116.672 22.7594 116.545 22.2711 116.545 21.5871V13.7H112.2H110.698V14.0905C111.129 14.2211 111.487 14.429 111.772 14.7134C112.057 14.9982 112.2 15.5072 112.2 16.2393V22.2463C112.2 23.0766 112.365 23.8011 112.696 24.4199C113.028 25.0386 113.475 25.5066 114.037 25.8239C114.6 26.1411 115.228 26.3 115.921 26.3C116.922 26.3 117.774 25.9989 118.475 25.3963C118.917 25.0169 119.275 24.5975 119.567 24.1467C119.829 24.9405 120.239 25.6109 120.798 26.1532H123.895H125.398V25.7626C124.966 25.6326 124.608 25.4252 124.323 25.1398C124.037 24.8555 123.895 24.3465 123.895 23.6139Z" fill="white"></path>
<path fill-rule="evenodd" clip-rule="evenodd" d="M143.492 15.3977C143.691 14.6731 144.026 14.3108 144.5 14.3108C144.988 14.3108 145.335 14.6776 145.541 15.4096C145.747 16.1427 145.85 16.9623 145.85 17.8701C145.85 18.7778 145.747 19.602 145.541 20.3429C145.335 21.0834 144.988 21.4536 144.5 21.4536C144.026 21.4536 143.691 21.0913 143.492 20.3667C143.294 19.6421 143.195 18.81 143.195 17.8701C143.195 16.947 143.294 16.1229 143.492 15.3977ZM133.25 23.8067C133.013 23.974 132.758 24.0576 132.483 24.0576C131.781 24.0576 131.297 23.5597 131.03 22.5643C130.763 21.5694 130.629 20.1479 130.629 18.3002C130.629 16.8351 130.77 15.8041 131.053 15.2067C131.335 14.6093 131.72 14.3108 132.209 14.3108C132.712 14.3108 133.059 14.5855 133.25 15.1349C133.441 15.6843 133.536 16.5084 133.536 17.6073V23.5444C133.447 23.6448 133.352 23.7344 133.25 23.8067ZM149.97 24.762C149.283 24.1972 148.406 23.8666 147.338 23.7706L144.065 23.484C143.241 23.4048 142.615 23.3013 142.188 23.1736C141.76 23.0464 141.547 22.8311 141.547 22.5287C141.547 22.3535 141.611 22.206 141.741 22.0867C141.827 22.0075 141.945 21.9219 142.089 21.8323C142.868 22.1495 143.672 22.3134 144.5 22.3134C145.369 22.3134 146.22 22.1342 147.052 21.7758C147.883 21.4175 148.566 20.9003 149.1 20.2231C149.634 19.5465 149.901 18.7541 149.901 17.8463C149.901 16.9227 149.634 16.1263 149.1 15.4576C148.957 15.278 148.801 15.1121 148.636 14.9557H151.297V13.7139L147.771 14.3039C147.547 14.1697 147.314 14.045 147.063 13.9406C146.239 13.598 145.384 13.4268 144.5 13.4268C143.63 13.4268 142.786 13.6025 141.97 13.9524C141.154 14.3029 140.482 14.8122 139.956 15.4814C139.43 16.1501 139.167 16.9386 139.167 17.8463C139.167 18.7699 139.43 19.5703 139.956 20.2469C140.352 20.7562 140.83 21.173 141.39 21.4972C140.803 21.7056 140.283 21.959 139.842 22.2659C139.178 22.7277 138.846 23.3568 138.846 24.1527C138.846 24.5684 138.958 24.9595 139.18 25.3267C138.84 25.199 138.547 25.0213 138.308 24.7857C138.026 24.5076 137.885 24.0096 137.885 23.2929V8.09998L133.444 8.84044L131.98 9.07902L132.026 9.46162C132.468 9.50914 132.83 9.65268 133.113 9.89125C133.395 10.1303 133.536 10.608 133.536 11.3247V13.7896C132.877 13.4906 132.184 13.3313 131.453 13.3313C130.477 13.3313 129.58 13.5782 128.764 14.0722C127.948 14.5657 127.299 15.3022 126.818 16.2817C126.337 17.2613 126.097 18.4437 126.097 19.8292C126.097 21.1987 126.296 22.3416 126.693 23.2573C127.089 24.173 127.616 24.8456 128.272 25.2757C128.928 25.7059 129.653 25.9207 130.446 25.9207C131.408 25.9207 132.239 25.6301 132.941 25.0486C133.237 24.8035 133.485 24.5308 133.703 24.2418C133.959 24.8214 134.282 25.3361 134.681 25.7771H137.885H139.373V25.5999C139.462 25.7133 139.558 25.8242 139.67 25.9326C140.219 26.4661 141.211 26.7963 142.645 26.924L145.919 27.2106C146.605 27.2739 147.105 27.3977 147.418 27.5808C147.731 27.7639 147.887 28.0624 147.887 28.4767C147.887 29.0182 147.613 29.4443 147.063 29.7547C146.514 30.0655 145.819 30.2204 144.98 30.2204C144.217 30.2204 143.591 30.0809 143.103 29.8027C142.615 29.524 142.348 29.1973 142.302 28.8232C142.256 28.449 142.447 28.1342 142.874 27.8793L142.737 27.6882C142.279 27.5288 141.73 27.4293 141.089 27.3897C140.449 27.3501 139.895 27.4259 139.43 27.6169C138.964 27.808 138.731 28.1579 138.731 28.6677C138.731 29.1612 138.979 29.5998 139.475 29.9819C139.971 30.364 140.662 30.6624 141.547 30.8778C142.432 31.0926 143.447 31.2 144.591 31.2C146.697 31.2 148.291 30.8337 149.375 30.1012C150.458 29.3686 151 28.3732 151 27.115C151 26.1117 150.657 25.3277 149.97 24.762Z" fill="white"></path>
<path fill-rule="evenodd" clip-rule="evenodd" d="M155.48 15.3227C155.685 14.7976 155.977 14.5351 156.356 14.5351C156.903 14.5351 157.263 15.0008 157.438 15.9314C157.612 16.8619 157.684 17.8686 157.654 18.95H154.991C154.992 18.3527 155.022 17.7327 155.081 17.0889C155.142 16.4367 155.275 15.8478 155.48 15.3227ZM159.816 23.6275C159.285 23.8979 158.754 24.0329 158.223 24.0329C157.631 24.0329 157.092 23.8623 156.607 23.5202C156.121 23.178 155.73 22.6331 155.434 21.8855C155.209 21.3154 155.071 20.6138 155.017 19.7851H161.797C161.812 18.7675 161.637 17.7969 161.273 16.8738C160.909 15.9517 160.317 15.1917 159.497 14.5949C158.678 13.9986 157.623 13.7 156.334 13.7C155.164 13.7 154.152 13.9472 153.295 14.4401C152.437 14.9331 151.773 15.6491 151.303 16.5875C150.832 17.5265 150.598 18.6558 150.598 19.9765C150.598 21.3762 150.885 22.5535 151.463 23.5083C152.039 24.4626 152.775 25.1667 153.67 25.6201C154.565 26.0735 155.491 26.3 156.447 26.3C157.373 26.3 158.204 26.0972 158.94 25.6913C159.676 25.2858 160.275 24.785 160.738 24.1882C161.201 23.5919 161.524 23.0069 161.706 22.4344L161.387 22.3627C160.871 22.9352 160.347 23.357 159.816 23.6275Z" fill="white"></path>
</g>
<defs>
<clipPath id="clip0_2_27072">
<rect width="145.6" height="28" fill="white" transform="translate(16.1975 6)"></rect>
</clipPath>
</defs>
</svg>
