<svg width="167" height="40" viewBox="0 0 167 40" fill="none" xmlns="http://www.w3.org/2000/svg">
<g clip-path="url(#clip0_2_27010)">
<path fill-rule="evenodd" clip-rule="evenodd" d="M50.2867 28.1634C52.707 28.1634 54.9384 26.1046 54.9384 23.1794C54.9384 20.0918 52.868 18.0609 50.3409 18.0609C47.1142 18.0609 45.582 20.6068 45.582 23.0977C45.582 25.5891 47.1142 28.1634 50.2867 28.1634ZM54.7502 18.493V16.6247H56.8731V29.5988H54.7502V27.8656H54.6963C53.7553 29.0034 52.1697 30.0595 49.9914 30.0595C46.4983 30.0595 43.3786 27.3235 43.3786 23.0977C43.3786 19.0878 46.2811 16.1921 50.1264 16.1921C52.4654 16.1921 53.8349 17.4369 54.7222 18.493H54.7502ZM73.4665 16.1921C76.37 16.1921 78.3862 18.2228 78.3862 22.0427V29.5988H76.2619V21.878C76.2619 19.8748 75.3488 18.1145 73.171 18.1145C71.3696 18.1145 69.6759 19.4145 69.6759 22.3945V29.5988H67.525V21.878C67.525 19.7393 66.3692 18.1145 64.4606 18.1145C62.3094 18.1145 60.9391 19.6852 60.9391 22.3945V29.5988H58.8139V16.6247H60.9391V18.2498H60.9933C61.8524 17.086 63.1696 16.1921 64.8367 16.1921C66.8529 16.1921 68.4923 17.3559 69.0308 18.8731C69.6759 17.5723 71.2355 16.1921 73.4665 16.1921ZM101.963 28.1088C104.677 28.1088 106.64 25.9417 106.64 23.0977C106.64 20.3616 104.785 18.1145 101.963 18.1145C99.221 18.1145 97.2848 20.2273 97.2848 23.0977C97.2848 26.0226 99.4889 28.1088 101.963 28.1088ZM101.963 16.1921C105.967 16.1921 108.844 19.1712 108.844 23.0977C108.844 26.9172 105.941 30.0594 101.963 30.0594C98.064 30.0594 95.0798 27.0249 95.0798 23.0977C95.0798 19.0878 98.0905 16.1921 101.963 16.1921ZM117.085 28.1088C119.8 28.1088 121.764 25.9417 121.764 23.0977C121.764 20.3616 119.909 18.1145 117.085 18.1145C114.344 18.1145 112.409 20.2273 112.409 23.0977C112.409 26.0226 114.613 28.1088 117.085 28.1088ZM117.085 16.1921C121.093 16.1921 123.968 19.1712 123.968 23.0977C123.968 26.9172 121.064 30.0594 117.085 30.0594C113.189 30.0594 110.204 27.0249 110.204 23.0977C110.204 19.0878 113.215 16.1921 117.085 16.1921ZM134.049 22.1865V16.6696H135.61V29.5992H134.049V23.6273H127.223V29.5992H125.662V16.6696H127.223V22.1865H134.049ZM139.561 22.7548H141.894C143.589 22.7548 144.436 21.7127 144.436 20.461C144.436 18.9444 143.533 18.1106 141.876 18.1106H139.561V22.7548ZM146.054 20.461C146.054 22.2997 144.698 23.7216 143.082 24.0445L147.127 29.599H145.149L141.275 24.196H139.561V29.599H137.999V16.6697H141.707C144.905 16.6697 146.054 18.6793 146.054 20.461ZM34.7061 28.2873C37.7379 28.2873 39.6641 26.1131 39.6641 23.2457C39.6641 20.6094 37.8441 18.0932 34.7544 18.0932C31.6652 18.0932 29.7497 20.4404 29.7497 23.2984C29.7497 26.1549 32.0217 28.2873 34.7061 28.2873ZM34.9211 16.0505C38.6392 16.0505 41.8494 19.2837 41.8494 23.0457C41.8494 27.0977 38.7715 30.25 34.7061 30.25C31.0158 30.25 27.7995 27.6286 27.7995 23.4218V9.75036H29.9368L29.9375 18.1039L30.191 17.8357C31.1212 16.9057 32.4474 16.0505 34.9211 16.0505ZM86.8027 28.2873C89.8345 28.2873 91.7604 26.1131 91.7604 23.2457C91.7604 20.6094 89.9401 18.0932 86.851 18.0932C83.7618 18.0932 81.8463 20.4404 81.8463 23.2984C81.8463 26.1549 84.118 28.2873 86.8027 28.2873ZM87.0177 16.0505C90.7353 16.0505 93.946 19.2837 93.946 23.0457C93.946 27.0977 90.8682 30.25 86.8027 30.25C83.112 30.25 79.8957 27.6286 79.8957 23.4218V11.037H82.0333L82.034 18.1039L82.2872 17.8357C83.2178 16.9057 84.544 16.0505 87.0177 16.0505ZM23.5144 11.4011C25.1093 13.0981 25.2767 14.046 25.8427 15.6928L26.7913 18.8247C26.7913 18.8247 25.856 18.6474 25.0896 18.5311C24.2007 18.3953 23.8071 18.2622 22.6767 17.7981C21.5461 17.3338 20.5235 16.1983 19.5208 14.9321C18.5186 13.6651 16.1788 11.6753 16.1788 11.6753C16.1788 11.6753 16.9023 11.7231 17.6361 11.9074C18.2368 12.0586 19.8021 12.57 21.4168 13.4152C21.7746 13.6021 21.973 13.7237 22.3259 13.9438C22.863 14.2782 23.4275 14.7764 23.9683 15.3286C24.6033 15.9775 25.1596 16.4993 25.6346 17.0801C25.1176 16.1206 23.7771 12.6678 21.1569 9.81725C20.9 9.53808 22.9679 10.8194 23.5144 11.4011ZM150.193 18.6914C150.256 18.5338 150.288 18.3622 150.288 18.1756C150.288 17.9951 150.256 17.8261 150.193 17.6696C150.13 17.513 150.044 17.3776 149.932 17.2626C149.821 17.1481 149.691 17.0576 149.54 16.9914C149.39 16.9248 149.228 16.8923 149.054 16.8923C148.877 16.8923 148.713 16.9248 148.562 16.9914C148.41 17.0576 148.279 17.1481 148.168 17.2626C148.057 17.3776 147.97 17.513 147.907 17.6696C147.844 17.8261 147.813 17.9951 147.813 18.1756C147.813 18.3622 147.844 18.5338 147.907 18.6914C147.97 18.8497 148.057 18.9867 148.168 19.103C148.279 19.2188 148.41 19.3101 148.562 19.376C148.713 19.4422 148.877 19.4754 149.054 19.4754C149.228 19.4754 149.39 19.4422 149.54 19.376C149.691 19.3101 149.821 19.2188 149.932 19.103C150.044 18.9867 150.13 18.8497 150.193 18.6914ZM150.441 17.5805C150.521 17.764 150.561 17.9626 150.561 18.1756C150.561 18.3941 150.521 18.5961 150.441 18.7812C150.36 18.9657 150.252 19.1266 150.115 19.2624C149.978 19.3989 149.819 19.505 149.637 19.5806C149.454 19.6559 149.261 19.6939 149.054 19.6939C148.848 19.6939 148.653 19.6559 148.47 19.5806C148.286 19.505 148.125 19.3989 147.987 19.2624C147.849 19.1266 147.74 18.9657 147.66 18.7812C147.579 18.5961 147.539 18.3941 147.539 18.1756C147.539 17.9626 147.579 17.764 147.66 17.5805C147.74 17.3967 147.849 17.2377 147.987 17.1023C148.125 16.9679 148.286 16.8618 148.47 16.7847C148.653 16.7081 148.848 16.6696 149.054 16.6696C149.261 16.6696 149.454 16.7081 149.637 16.7847C149.819 16.8618 149.978 16.9679 150.115 17.1023C150.252 17.2377 150.36 17.3967 150.441 17.5805ZM149.026 18.0824C149.088 18.0824 149.146 18.0803 149.201 18.0764C149.256 18.0726 149.305 18.0611 149.348 18.0421C149.39 18.0229 149.425 17.9941 149.45 17.955C149.475 17.9161 149.488 17.8613 149.488 17.791C149.488 17.7315 149.477 17.6838 149.454 17.6491C149.431 17.6142 149.402 17.5874 149.366 17.5686C149.329 17.5494 149.288 17.5366 149.241 17.5299C149.194 17.5231 149.148 17.5198 149.102 17.5198H148.741V18.0824H149.026ZM149.629 18.1536C149.54 18.2276 149.431 18.2713 149.299 18.2849L149.802 19.0666H149.508L149.03 18.3055H148.741V19.0666H148.467V17.297H149.147C149.356 17.297 149.51 17.3391 149.611 17.4223C149.711 17.5061 149.761 17.633 149.761 17.8031C149.761 17.9628 149.717 18.079 149.629 18.1536Z" fill="white"></path>
</g>
<defs>
<clipPath id="clip0_2_27010">
<rect width="134.381" height="20.5" fill="white" transform="translate(16.1788 9.75)"></rect>
</clipPath>
</defs>
</svg>
