<svg width="135" height="40" viewBox="0 0 135 40" fill="none" xmlns="http://www.w3.org/2000/svg">
<mask id="mask0_2_27045" style="mask-type:luminance" maskUnits="userSpaceOnUse" x="20" y="6" width="92" height="28">
<path d="M111.935 6H20V34H111.935V6Z" fill="white"></path>
</mask>
<g mask="url(#mask0_2_27045)">
<path d="M46.3777 15.5995C47.1697 13.111 46.6933 8.14644 45.1585 6.31362C44.9574 6.0732 44.5832 6.10755 44.416 6.37294L42.5257 9.36727C42.0584 9.96677 41.2169 10.1042 40.5825 9.68577C38.5313 8.33066 36.0809 7.54382 33.448 7.54382C30.815 7.54382 28.3646 8.33066 26.3133 9.68577C25.6821 10.1042 24.8406 9.96363 24.3703 9.36727L22.4799 6.37294C22.3128 6.10755 21.9384 6.07632 21.7373 6.31362C20.2027 8.14955 19.7263 13.1141 20.5183 15.5995C20.7813 16.4269 20.8525 17.3012 20.6978 18.1504C20.5431 18.9935 20.3884 20.0114 20.3884 20.7201C20.3884 27.9984 26.2359 33.8963 33.4449 33.8963C40.6569 33.8963 46.5013 27.9953 46.5013 20.7201C46.5013 20.0114 46.3467 18.9935 46.192 18.1504C46.0404 17.3012 46.1145 16.4269 46.3777 15.5995ZM33.4449 30.9553C27.8696 30.9553 23.3369 26.3778 23.3369 20.7514C23.3369 20.5671 23.3431 20.386 23.3524 20.2049C23.5535 16.3707 25.8616 13.0954 29.1257 11.5342C30.4344 10.9035 31.901 10.5538 33.448 10.5538C34.9949 10.5538 36.4584 10.9035 37.7703 11.5373C41.0343 13.0985 43.3424 16.3769 43.5435 20.2081C43.5528 20.3892 43.559 20.5734 43.559 20.7545C43.5558 26.3778 39.0202 30.9553 33.4449 30.9553Z" fill="white"></path>
<path d="M37.8255 24.6793L35.242 20.158L33.0268 16.3894C32.9742 16.2988 32.8783 16.2457 32.7762 16.2457H30.6599C30.5547 16.2457 30.4588 16.3019 30.4062 16.3956C30.3536 16.4862 30.3567 16.5986 30.4093 16.6891L32.5287 20.2829L29.6853 24.6605C29.6265 24.7511 29.6234 24.8665 29.6729 24.9602C29.7224 25.0538 29.8214 25.1133 29.9297 25.1133H32.0615C32.1605 25.1133 32.2533 25.0633 32.3059 24.9789L33.8436 22.556L35.2235 24.9696C35.2761 25.0602 35.372 25.1164 35.4741 25.1164H37.5749C37.68 25.1164 37.776 25.0602 37.8255 24.9696C37.8781 24.8822 37.8781 24.7698 37.8255 24.6793Z" fill="white"></path>
<path d="M58.5432 13.1769H61.2381V28.0891H58.5432V21.7352H55.4987V28.0924H52.8039V13.1769H55.4987V19.6526H58.5432V13.1769Z" fill="white"></path>
<path d="M69.5516 28.092L68.9884 24.9947H65.7555L65.2387 28.092H62.5439L65.5171 13.1797H69.1461L72.2619 28.092H69.5516ZM66.1081 22.937H68.6142L67.3271 15.7993L66.1081 22.937Z" fill="white"></path>
<path d="M78.2642 25.3724V22.1814C78.2642 21.9285 78.2181 21.7599 78.1252 21.6725C78.0323 21.585 77.859 21.5413 77.6084 21.5413H75.7119C74.1029 21.5413 73.2987 20.7545 73.2987 19.1777V15.5183C73.2987 13.9571 74.14 13.1797 75.8261 13.1797H78.4035C80.0897 13.1797 80.9313 13.9603 80.9313 15.5183V17.5978H78.2148V15.8961C78.2148 15.6432 78.1684 15.4746 78.0758 15.3872C77.9829 15.2998 77.8097 15.2561 77.559 15.2561H76.6681C76.4019 15.2561 76.2223 15.2998 76.1297 15.3872C76.0368 15.4746 75.9903 15.6432 75.9903 15.8961V18.8967C75.9903 19.1496 76.0368 19.3182 76.1297 19.4056C76.2223 19.4931 76.4019 19.5368 76.6681 19.5368H78.5181C80.1577 19.5368 80.9777 20.308 80.9777 21.8536V25.7534C80.9777 27.3145 80.1271 28.092 78.4252 28.092H75.8945C74.1929 28.092 73.3419 27.3114 73.3419 25.7534V23.6957H76.0335V25.3724C76.0335 25.6253 76.08 25.794 76.1729 25.8814C76.2658 25.9687 76.4452 26.0125 76.7113 26.0125H77.6023C77.8529 26.0125 78.0229 25.9687 78.119 25.8814C78.2148 25.794 78.2642 25.6253 78.2642 25.3724Z" fill="white"></path>
<path d="M88.1677 13.1769H90.8593V25.7505C90.8593 27.3116 90.0087 28.0891 88.3071 28.0891H85.4513C83.7497 28.0891 82.8987 27.3085 82.8987 25.7505V13.1769H85.5935V25.3727C85.5935 25.6256 85.64 25.7942 85.7329 25.8816C85.8255 25.9691 85.999 26.0127 86.2496 26.0127H87.49C87.7561 26.0127 87.9358 25.9691 88.0284 25.8816C88.1213 25.7942 88.1677 25.6256 88.1677 25.3727V13.1769Z" fill="white"></path>
<path d="M95.7787 22.2785V28.0924H93.0867V13.1769H98.52C100.222 13.1769 101.072 13.9574 101.072 15.5155V19.9367C101.072 21.2294 100.503 21.985 99.3616 22.2067L101.821 28.0924H98.9161L96.6667 22.2785H95.7787ZM95.7787 15.2563V20.2677H97.7216C97.9722 20.2677 98.1425 20.224 98.2383 20.1366C98.3312 20.0491 98.3774 19.8805 98.3774 19.6276V15.8964C98.3774 15.6435 98.3312 15.4749 98.2383 15.3875C98.1454 15.3 97.9722 15.2563 97.7216 15.2563H95.7787Z" fill="white"></path>
<path d="M109.222 28.092L108.659 24.9947H105.426L104.909 28.092H102.217L105.191 13.1797H108.82L111.935 28.092H109.222ZM105.782 22.937H108.288L107.001 15.7993L105.782 22.937Z" fill="white"></path>
</g>
</svg>
