<svg width="131" height="40" viewBox="0 0 131 40" fill="none" xmlns="http://www.w3.org/2000/svg">
<g clip-path="url(#clip0_2_27040)">
<path d="M21.7754 21.034C21.7754 23.4138 23.8453 25.3422 26.3992 25.3422C28.9531 25.3422 31.0231 23.4138 31.0231 21.034C31.0231 18.6551 28.9531 16.7258 26.3992 16.7258C23.8453 16.7258 21.7754 18.6551 21.7754 21.034ZM16.4916 27.8033C16.4916 29.1635 17.6748 30.2654 19.1335 30.2654C20.5931 30.2654 21.7764 29.1635 21.7764 27.8033V25.3699C21.7764 25.3699 19.871 25.3412 19.1344 25.3412C17.6748 25.3412 16.4916 26.4441 16.4916 27.8033ZM70.668 9.87329H74.2645V29.9555H70.668V9.87329Z" fill="white"></path>
<path fill-rule="evenodd" clip-rule="evenodd" d="M76.1411 16.7584H79.6372L83.1352 25.5574L86.6313 16.7594H90.1283L84.8837 29.9565H81.3848L76.1411 16.7574V16.7584ZM112.017 16.7584H108.521V17.6413C107.493 17.0798 106.298 16.7584 105.025 16.7584C101.163 16.7584 98.0311 19.7131 98.0311 23.3565C98.0311 27.0008 101.163 29.9555 105.025 29.9555C106.298 29.9555 107.493 29.6341 108.521 29.0727V29.9555H112.017V23.388V23.3565V16.7584ZM108.521 23.3345V23.3794C108.509 25.1911 106.948 26.6565 105.025 26.6565C103.093 26.6565 101.528 25.1787 101.528 23.3565C101.528 21.5353 103.094 20.0574 105.025 20.0574C106.948 20.0574 108.509 21.5228 108.521 23.3345ZM94.3571 14.9879C95.35 14.9879 96.1554 14.2294 96.1554 13.292C96.1554 12.3546 95.35 11.5951 94.3571 11.5951C93.3642 11.5951 92.5589 12.3546 92.5589 13.292C92.5589 14.2294 93.3642 14.9879 94.3571 14.9879ZM96.1554 16.6857H92.5589V29.9555H96.1554V16.6857Z" fill="white"></path>
<path d="M42.6428 9.87329H39.0463V29.9555H42.6428V23.4482C42.6428 21.5735 44.2526 20.0545 46.2393 20.0545C48.226 20.0545 49.8358 21.5735 49.8358 23.4482V29.9555H53.4324V23.4482C53.4324 19.6996 50.2127 16.6608 46.2393 16.6608C44.9289 16.6608 43.7007 16.9917 42.6428 17.5695V9.87329ZM68.5444 23.2531C68.5444 21.9762 68.2517 20.8302 67.6931 19.8163C67.1211 18.8024 66.3119 18.0123 65.2789 17.4327C64.2324 16.854 63.032 16.5642 61.6919 16.5642C60.7163 16.5642 59.7942 16.7354 58.9429 17.0644C58.0782 17.4069 57.3522 17.8679 56.7381 18.4609C56.124 19.053 55.6496 19.7771 55.3004 20.6198C54.9379 21.4616 54.7705 22.3836 54.7705 23.3583C54.7705 24.7013 55.0766 25.8998 55.705 26.9396C56.3335 27.9936 57.1982 28.7962 58.2877 29.35C59.3762 29.9029 60.59 30.1793 61.9578 30.1793C63.297 30.1793 64.4697 29.9555 65.5027 29.5078C66.5214 29.0602 67.344 28.4537 67.9858 27.6904L65.5582 25.5574C64.6782 26.5579 63.5619 27.0591 62.2228 27.0457C61.3294 27.0457 60.5623 26.8085 59.9338 26.3609C59.3064 25.9132 58.8874 25.3077 58.6636 24.5176H68.4469C68.5024 24.3072 68.5444 23.8854 68.5444 23.2531ZM61.8182 19.6719C62.5997 19.6719 63.2549 19.8823 63.7714 20.2908C64.2745 20.6982 64.637 21.2645 64.8331 21.9762H58.677C58.8864 21.2387 59.2633 20.659 59.821 20.264C60.3796 19.8689 61.0357 19.6709 61.8172 19.6709L61.8182 19.6719Z" fill="white"></path>
</g>
<defs>
<clipPath id="clip0_2_27040">
<rect width="98.5217" height="22" fill="white" transform="translate(16.4657 9)"></rect>
</clipPath>
</defs>
</svg>
