<svg xmlns="http://www.w3.org/2000/svg" fill="none" viewBox="0 0 142 40" height="40" width="142">
<path fill="white" d="M39.758 20.9685C39.758 23.0111 39.758 25.0538 39.758 27.0964C39.758 27.2276 39.7498 27.3589 39.7498 27.482C39.7252 28.0562 39.2494 28.6386 38.6095 28.7207C38.4947 28.7371 38.3798 28.7453 38.265 28.7453C34.0649 28.7453 29.8648 28.7453 25.6647 28.7453C25.4186 28.7453 25.1725 28.7125 24.951 28.6058C24.5326 28.4007 24.3029 28.0644 24.1963 27.6214C24.1142 27.2605 24.2045 26.9323 24.4013 26.637C24.4998 26.4894 24.6228 26.3581 24.7459 26.235C24.9018 26.071 25.0658 25.9151 25.2217 25.7593C29.2577 21.7396 33.2856 17.72 37.3216 13.7086C37.4282 13.6019 37.5513 13.4953 37.6825 13.4132C38.4208 12.9621 39.397 13.3066 39.6842 14.1269C39.717 14.2254 39.7334 14.3238 39.7498 14.4223C39.7662 14.5617 39.7662 14.7094 39.7662 14.8488C39.758 16.8915 39.758 18.9341 39.758 20.9685Z"></path>
<path fill="white" d="M32.3828 11.2395C32.5879 11.2395 32.793 11.2477 32.9899 11.2887C33.5067 11.3953 33.9168 11.8547 33.9989 12.3715C34.0727 12.8227 33.9497 13.2083 33.6379 13.5364C33.5887 13.5938 33.5313 13.6431 33.4821 13.7005C32.0301 15.1443 30.5863 16.5881 29.1343 18.0318C28.9948 18.1631 28.8636 18.2943 28.6831 18.3846C28.478 18.4912 28.2565 18.5322 28.0351 18.5404C27.9694 18.5404 27.8956 18.5404 27.83 18.5404C24.5815 18.5404 21.3247 18.5404 18.0762 18.5404C17.9203 18.5404 17.7645 18.524 17.6086 18.5076C17.0836 18.4502 16.5586 18.0072 16.4684 17.4084C16.452 17.2853 16.4355 17.1623 16.4355 17.0474C16.4355 15.6119 16.4355 14.1763 16.4355 12.7407C16.4355 12.4044 16.5012 12.0926 16.7063 11.8137C16.9524 11.4856 17.2723 11.2887 17.6907 11.2559C17.8465 11.2395 18.0024 11.2395 18.1582 11.2395C20.529 11.2395 30.0121 11.2313 32.3828 11.2395Z"></path>
<path fill="white" d="M81.4977 24.0615C81.5141 24.0123 81.5387 23.9795 81.5469 23.9385C81.9407 22.708 83.3024 18.4176 83.5896 17.4988C83.5978 17.466 83.6142 17.4332 83.6224 17.4004C83.7208 17.1297 83.9095 16.9656 84.2048 16.9656C84.5493 16.9574 84.9021 16.9574 85.2466 16.9656C85.5337 16.9738 85.7142 17.1297 85.8127 17.3922C85.8865 17.5809 85.9439 17.7778 86.0013 17.9746C86.4197 19.279 87.6666 23.2166 87.8799 23.8892C87.8963 23.9549 87.8963 24.0287 87.9783 24.0615C88.0522 24.0287 88.0522 23.9467 88.0686 23.8892C88.249 23.3068 89.4631 19.1969 89.8979 17.7285C89.9389 17.5973 89.9717 17.466 90.0128 17.3348C90.0784 17.1215 90.226 17.0066 90.4393 16.982C90.4475 16.982 90.4557 16.982 90.4557 16.982C90.9807 16.982 91.5058 16.9656 92.0308 16.982C92.3261 16.9902 92.4902 17.2445 92.4081 17.5317C92.2687 18.0157 92.121 18.4996 91.9734 18.9754C91.4483 20.6817 89.8159 25.9483 89.5288 26.867C89.5041 26.9573 89.4713 27.0475 89.4303 27.1378C89.3155 27.4085 89.1104 27.5479 88.8069 27.5479C88.3967 27.5479 87.9865 27.5479 87.5764 27.5479C87.1662 27.5479 86.9775 27.4003 86.8463 27.0147C86.6084 26.301 85.2466 22.1583 84.7954 20.813C84.7708 20.7474 84.7708 20.6653 84.697 20.6161C84.6232 20.6571 84.6232 20.731 84.6068 20.7966C84.4263 21.3462 83.0645 25.4561 82.5723 26.9573C82.4575 27.3018 82.2606 27.5561 81.752 27.5479C81.3911 27.5397 81.0301 27.5479 80.6692 27.5479C80.218 27.5479 80.0457 27.4249 79.8981 26.9901C79.734 26.4815 77.1581 18.1305 77.0351 17.7285C77.0105 17.6383 76.9777 17.5481 76.9695 17.4496C76.9449 17.2117 77.0925 17.023 77.3304 16.982C77.3878 16.9738 77.4371 16.9738 77.4945 16.9738C77.9293 16.9738 78.3722 16.9738 78.807 16.9738C78.8398 16.9738 78.8726 16.9738 78.9054 16.982C79.168 16.9984 79.332 17.1379 79.4141 17.384C79.4797 17.5891 79.5371 17.8024 79.6027 18.0074C80.0949 19.6727 80.5871 21.3298 81.0793 22.9951C81.1614 23.2822 81.2434 23.5693 81.3336 23.8564C81.3829 23.9138 81.3911 24.0041 81.4977 24.0615Z"></path>
<path fill="white" d="M51.1856 15.6775C51.1774 15.7431 51.161 15.7841 51.161 15.8252C51.161 17.0475 51.161 18.2615 51.161 19.4838C51.161 19.5085 51.1692 19.5331 51.1856 19.5741C51.2348 19.5823 51.2759 19.5987 51.3251 19.5987C51.5055 19.5987 55.3939 19.5987 57.1658 19.6069C57.2561 19.6069 57.3463 19.6069 57.4283 19.6233C57.6662 19.6643 57.8139 19.8284 57.8303 20.0745C57.8385 20.2139 57.8385 20.3616 57.8385 20.5011C57.8385 20.8374 57.8385 21.1655 57.8303 21.5019C57.8303 21.5839 57.8139 21.6659 57.7811 21.7398C57.7073 21.912 57.5596 21.9695 57.3873 21.9941C57.3135 22.0023 57.2397 22.0023 57.1658 22.0023C55.2709 22.0023 53.3677 22.0023 51.4727 22.0023C51.3825 22.0023 51.3005 22.0105 51.2184 22.0105C51.1528 22.1253 51.1692 22.2238 51.1692 22.3304C51.1692 23.7496 51.1692 25.177 51.1692 26.5961C51.1692 26.7602 51.161 26.9243 51.1528 27.0883C51.1364 27.3672 51.0133 27.5067 50.7344 27.5559C50.677 27.5641 50.6114 27.5641 50.554 27.5641C50.0289 27.5641 49.5039 27.5641 48.9789 27.5641C48.8887 27.5641 48.7984 27.5559 48.7164 27.5231C48.5277 27.4657 48.4457 27.3344 48.4375 27.1375C48.4375 27.0883 48.4375 27.0391 48.4375 26.9981C48.4375 22.6257 48.4375 18.2615 48.4375 13.8892C48.4375 13.8318 48.4375 13.7661 48.4375 13.7087C48.4539 13.5036 48.5688 13.3642 48.7738 13.3313C48.8887 13.3149 49.0035 13.3149 49.1184 13.3149C50.9231 13.3149 56.5178 13.3149 57.5186 13.3149C57.617 13.3149 57.7237 13.3149 57.8221 13.3313C58.0518 13.356 58.2077 13.5036 58.2405 13.7415C58.2487 13.7825 58.2487 13.8235 58.2487 13.8646C58.2487 14.3157 58.2487 14.7669 58.2487 15.2099C58.2487 15.2263 58.2487 15.2509 58.2487 15.2673C58.2323 15.5052 58.0846 15.6611 57.8467 15.6775C57.7155 15.6857 57.5842 15.6857 57.4612 15.6857C55.8369 15.6857 51.8337 15.6857 51.4563 15.6857C51.3579 15.6611 51.2759 15.6693 51.1856 15.6775Z"></path>
<path fill="white" d="M118.419 22.9949C118.411 23.0852 118.403 23.1508 118.403 23.2164C118.419 23.7661 118.551 24.2829 118.829 24.7587C119.158 25.3247 119.65 25.6528 120.306 25.7266C121.085 25.8169 121.75 25.5872 122.299 25.0376C122.398 24.9391 122.488 24.8243 122.578 24.7176C122.693 24.5782 122.841 24.5126 123.03 24.5126C123.596 24.5208 124.162 24.5126 124.728 24.5208C124.81 24.5208 124.892 24.5454 124.966 24.5782C125.105 24.6438 125.179 24.7669 125.162 24.9227C125.154 25.0622 125.105 25.1852 125.048 25.3083C124.875 25.661 124.629 25.9645 124.334 26.2188C123.62 26.8341 122.8 27.2197 121.873 27.4001C121.208 27.5314 120.528 27.556 119.855 27.4822C119.125 27.4001 118.427 27.195 117.796 26.7931C117.025 26.3009 116.5 25.62 116.172 24.7751C115.95 24.2008 115.827 23.602 115.794 22.9867C115.778 22.6914 115.753 22.4043 115.761 22.109C115.778 21.4281 115.835 20.7472 116.049 20.0992C116.401 18.9835 117.058 18.1058 118.099 17.5315C118.542 17.2854 119.01 17.146 119.51 17.0557C120.044 16.9573 120.585 16.9409 121.118 16.9819C121.717 17.0229 122.308 17.146 122.857 17.4003C123.727 17.8022 124.358 18.4503 124.81 19.2788C125.22 20.0335 125.409 20.8539 125.425 21.707C125.433 21.9777 125.417 22.2484 125.425 22.5274C125.433 22.8227 125.261 22.9457 125.023 22.9785C124.908 22.9949 124.793 22.9949 124.678 22.9949C122.701 22.9949 120.733 22.9949 118.756 22.9949C118.657 22.9949 118.551 22.9949 118.419 22.9949ZM122.8 21.3215C122.816 21.0918 122.808 20.8539 122.767 20.6242C122.669 20.0828 122.447 19.6152 122.053 19.2296C121.84 19.0245 121.586 18.8687 121.299 18.7948C120.987 18.721 120.667 18.68 120.347 18.7128C119.838 18.7538 119.395 18.9507 119.051 19.3363C118.854 19.5495 118.706 19.7956 118.608 20.0664C118.477 20.4273 118.403 20.8047 118.411 21.182C118.411 21.3461 118.436 21.3707 118.608 21.3707C118.731 21.3707 118.854 21.3707 118.977 21.3707C120.167 21.3707 121.356 21.3707 122.546 21.3789C122.619 21.3707 122.71 21.3871 122.8 21.3215Z"></path>
<path fill="white" d="M65.6152 22.2156C65.6316 21.8218 65.6316 21.4117 65.6727 21.0097C65.7711 19.9843 66.132 19.0655 66.8539 18.3108C67.2887 17.8514 67.8055 17.5233 68.4044 17.3018C68.9786 17.0885 69.5774 16.9901 70.1845 16.9655C70.6193 16.9491 71.0458 16.9573 71.4724 17.0147C72.6455 17.1624 73.6709 17.6053 74.442 18.5323C74.9342 19.1312 75.2295 19.8202 75.369 20.5749C75.451 21.0015 75.4838 21.4281 75.4838 21.8547C75.4838 22.3469 75.4838 22.8309 75.4428 23.3231C75.3854 24.1598 75.1557 24.9391 74.6963 25.6446C74.2205 26.3665 73.5807 26.8669 72.7767 27.1622C72.2599 27.3509 71.7267 27.4493 71.1771 27.4985C70.7095 27.5396 70.2501 27.5314 69.7907 27.4821C69.1099 27.4165 68.4454 27.2524 67.8301 26.9325C67.0426 26.5141 66.4766 25.8825 66.1074 25.0868C65.8449 24.5289 65.7055 23.9301 65.6727 23.3148C65.6398 22.9539 65.6316 22.593 65.6152 22.2156ZM68.2731 22.2238C68.2649 22.3715 68.2649 22.5191 68.2649 22.675C68.2649 23.0277 68.2813 23.3805 68.3551 23.7332C68.4372 24.1598 68.5766 24.5618 68.8473 24.9063C69.1263 25.2508 69.479 25.4805 69.922 25.5626C70.2747 25.6282 70.6275 25.6528 70.9802 25.5954C71.4888 25.5051 71.9318 25.3001 72.2599 24.8899C72.4322 24.6684 72.5471 24.4141 72.6373 24.1516C72.7767 23.725 72.826 23.2902 72.8424 22.8473C72.8506 22.5109 72.8424 22.1664 72.8424 21.83C72.8424 21.4855 72.8178 21.1492 72.7521 20.8128C72.6455 20.2222 72.424 19.6972 71.94 19.3034C71.7021 19.1147 71.4396 18.9671 71.1361 18.9261C70.89 18.8933 70.6439 18.8768 70.406 18.8768C69.5282 18.8851 68.9212 19.3034 68.5602 20.0909C68.3634 20.5175 68.2977 20.9769 68.2731 21.4363C68.2567 21.6906 68.2731 21.9613 68.2731 22.2238Z"></path>
<path fill="white" d="M111.169 19.0818C111.104 19.1967 111.12 19.2951 111.12 19.4018C111.12 20.7799 111.12 22.1499 111.12 23.528C111.12 23.6757 111.128 23.8234 111.136 23.9792C111.145 24.1925 111.202 24.3976 111.276 24.5945C111.432 25.0046 111.735 25.2425 112.17 25.3082C112.342 25.3328 112.506 25.341 112.679 25.341C113.031 25.3492 113.392 25.341 113.745 25.341C113.802 25.341 113.868 25.341 113.926 25.3492C114.139 25.3738 114.295 25.5132 114.336 25.7183C114.352 25.8086 114.352 25.8906 114.352 25.9808C114.352 26.2844 114.352 26.5961 114.352 26.8996C114.352 26.9652 114.352 27.0391 114.336 27.1047C114.303 27.3672 114.131 27.5149 113.868 27.5313C113.819 27.5313 113.77 27.5313 113.729 27.5313C113.261 27.5313 112.802 27.5313 112.334 27.5313C111.908 27.5313 111.473 27.5067 111.054 27.4082C110.611 27.3098 110.193 27.1621 109.816 26.8996C109.307 26.5387 108.987 26.0383 108.782 25.464C108.585 24.9144 108.52 24.3402 108.52 23.7577C108.52 20.4928 108.52 17.2197 108.52 13.9548C108.52 13.8809 108.52 13.8071 108.528 13.7333C108.544 13.4954 108.675 13.3395 108.913 13.3067C108.979 13.2985 109.053 13.2903 109.118 13.2903C109.586 13.2903 110.062 13.2903 110.529 13.2903C110.595 13.2903 110.669 13.2903 110.734 13.3067C110.948 13.3477 111.079 13.5036 111.095 13.7169C111.104 13.7989 111.095 13.8809 111.095 13.963C111.095 14.8735 111.095 15.7841 111.095 16.7029C111.095 16.7767 111.104 16.8505 111.104 16.9162C111.202 16.99 111.3 16.9654 111.399 16.9654C112.08 16.9654 112.769 16.9654 113.45 16.9654C113.548 16.9654 113.655 16.9654 113.753 16.9818C113.958 17.0064 114.106 17.1376 114.147 17.3427C114.163 17.4002 114.163 17.4658 114.163 17.5232C114.163 17.8267 114.163 18.1385 114.163 18.442C114.163 18.5158 114.155 18.5896 114.147 18.6635C114.106 18.9096 113.934 19.0572 113.688 19.0736C113.614 19.0818 113.54 19.0736 113.466 19.0736C112.777 19.0736 112.088 19.0736 111.399 19.0736C111.317 19.0736 111.243 19.0818 111.169 19.0818Z"></path>
<path fill="white" d="M16.4441 25.0047C16.4441 24.2664 16.4441 23.5199 16.4441 22.7816C16.4441 22.6832 16.4441 22.5765 16.4605 22.4781C16.5262 21.8054 17.0758 21.2558 17.8223 21.2312C17.8961 21.2312 17.97 21.2312 18.0438 21.2312C19.4876 21.2312 20.9396 21.2312 22.3834 21.2312C22.5228 21.2312 22.6705 21.2394 22.8099 21.2558C23.3431 21.3214 23.7041 21.6168 23.8928 22.1008C24.0896 22.6012 24.0158 23.077 23.6467 23.4871C23.417 23.7414 23.1709 23.9711 22.9248 24.2172C21.5958 25.5462 20.2669 26.8751 18.938 28.204C18.8231 28.3189 18.7001 28.4337 18.5688 28.524C17.8551 29.049 16.6738 28.688 16.4688 27.679C16.4441 27.5396 16.4277 27.3919 16.4277 27.2524C16.4441 26.5059 16.4441 25.7594 16.4441 25.0047Z"></path>
<path fill="white" d="M97.1719 18.2533C97.213 18.2205 97.254 18.1877 97.2868 18.1467C97.7872 17.556 98.4271 17.2033 99.1818 17.0474C99.3868 17.0064 99.6001 16.9818 99.8134 16.9654C100.15 16.949 100.486 16.949 100.814 16.949C100.872 16.949 100.937 16.949 100.995 16.9572C101.2 16.9818 101.347 17.1212 101.38 17.3181C101.397 17.4002 101.397 17.4822 101.397 17.5642C101.397 17.9416 101.397 18.3271 101.397 18.7045C101.397 18.7783 101.397 18.8521 101.388 18.926C101.356 19.1639 101.192 19.3197 100.954 19.3443C100.896 19.3526 100.847 19.3443 100.79 19.3443C100.297 19.3443 99.8052 19.3443 99.313 19.3443C99.1325 19.3443 98.9521 19.3526 98.7798 19.3936C98.0497 19.5412 97.5575 19.9596 97.3278 20.6733C97.2704 20.862 97.2376 21.0588 97.2376 21.2557C97.2376 23.1589 97.2376 25.0703 97.2376 26.9734C97.2376 27.3098 97.0489 27.5067 96.7044 27.5149C96.1465 27.5231 95.5805 27.5149 95.0227 27.5149C94.875 27.5149 94.7438 27.4738 94.6371 27.359C94.5633 27.2852 94.5141 27.1949 94.5141 27.0883C94.5141 26.9734 94.5059 26.8586 94.5059 26.7438C94.5059 23.7331 94.5059 20.7225 94.5059 17.7201C94.5059 17.6052 94.5059 17.4904 94.5141 17.3755C94.5387 17.1541 94.6945 16.99 94.9242 16.9572C94.9981 16.949 95.0719 16.949 95.1457 16.949C95.5805 16.949 96.0235 16.949 96.4583 16.949C96.5157 16.949 96.5813 16.9572 96.6387 16.9572C96.934 16.9654 97.1063 17.1951 97.1063 17.4494C97.1063 17.6545 97.1063 17.8595 97.1063 18.0646C97.1063 18.1221 97.1145 18.1795 97.1145 18.2369C97.1473 18.2451 97.1637 18.2533 97.1719 18.2533Z"></path>
<path fill="white" d="M60.4646 13.9384C60.4646 13.8482 60.4646 13.7579 60.481 13.6759C60.5138 13.4626 60.6615 13.3231 60.8747 13.2903C60.9486 13.2821 61.0224 13.2739 61.0962 13.2739C61.5638 13.2739 62.0232 13.2739 62.4908 13.2739C62.5482 13.2739 62.5975 13.2821 62.6549 13.2821C62.86 13.2821 63.0814 13.4626 63.1061 13.7333C63.1143 13.7907 63.1061 13.84 63.1061 13.8974C63.1061 18.2287 63.1061 22.5519 63.1061 26.8832C63.1061 26.9407 63.1061 27.0063 63.0979 27.0637C63.0732 27.318 62.9092 27.4903 62.6549 27.5149C62.5975 27.5231 62.5482 27.5231 62.4908 27.5231C62.0232 27.5231 61.5474 27.5231 61.0798 27.5231C61.0224 27.5231 60.9732 27.5231 60.9158 27.5149C60.6533 27.4821 60.481 27.3016 60.4646 27.0391C60.4564 26.9735 60.4646 26.8997 60.4646 26.834C60.4646 24.7012 60.4646 16.0959 60.4646 13.9384Z"></path>
<path fill="white" d="M105.69 22.2485C105.69 23.8236 105.69 25.3904 105.69 26.9654C105.69 27.0065 105.69 27.0475 105.69 27.0885C105.665 27.3346 105.517 27.4822 105.271 27.5233C105.247 27.5315 105.214 27.5315 105.189 27.5315C104.648 27.5315 104.106 27.5315 103.573 27.5315C103.483 27.5315 103.384 27.4986 103.302 27.4576C103.187 27.4084 103.105 27.31 103.089 27.1787C103.073 27.0639 103.064 26.949 103.064 26.8342C103.064 25.4396 103.064 24.045 103.064 22.6505C103.064 20.9606 103.064 19.2789 103.064 17.589C103.064 17.4824 103.073 17.3675 103.105 17.2691C103.163 17.0968 103.286 16.9984 103.466 16.982C103.548 16.9738 103.63 16.9656 103.713 16.9656C104.164 16.9656 104.615 16.9656 105.066 16.9656C105.14 16.9656 105.214 16.9656 105.288 16.982C105.509 17.0148 105.657 17.1543 105.69 17.3839C105.698 17.4414 105.698 17.4906 105.698 17.548C105.69 19.0984 105.69 20.6735 105.69 22.2485Z"></path>
<path fill="white" d="M104.375 15.6858C104.097 15.6858 103.818 15.6858 103.539 15.6858C103.457 15.6858 103.375 15.6694 103.301 15.653C103.112 15.5956 103.005 15.4643 102.981 15.2674C102.973 15.2264 102.973 15.1854 102.973 15.1444C102.973 14.7014 102.973 14.2584 102.973 13.8154C102.973 13.7334 102.997 13.6432 103.022 13.5611C103.079 13.4135 103.202 13.3232 103.358 13.2986C103.44 13.2904 103.522 13.2822 103.604 13.2822C104.113 13.2822 104.613 13.2822 105.122 13.2822C105.196 13.2822 105.27 13.2822 105.343 13.2986C105.59 13.3314 105.754 13.4955 105.77 13.7416C105.778 13.9139 105.778 14.0944 105.778 14.2748C105.778 14.5209 105.778 14.767 105.778 15.0131C105.778 15.0788 105.778 15.1526 105.77 15.2182C105.745 15.5053 105.59 15.6612 105.302 15.694C105.22 15.7022 105.138 15.694 105.056 15.7022C104.843 15.6858 104.613 15.6858 104.375 15.6858Z"></path>
</svg>
