<svg width="132" height="40" viewBox="0 0 132 40" fill="none" xmlns="http://www.w3.org/2000/svg">
<g clip-path="url(#clip0_2_26985)">
<path d="M16.804 21.1961C16.7898 20.8193 16.7624 20.4625 16.7643 20.1059C16.7691 19.1935 16.8566 18.2893 17.0087 17.3878C17.281 15.7741 17.8426 14.2656 18.6267 12.8392C19.0892 11.9978 19.6194 11.1959 20.2709 10.4837C20.6822 10.0341 21.08 9.56844 21.5251 9.15435C22.3112 8.42298 23.1753 7.789 24.1048 7.24694C25.0537 6.69354 26.0472 6.23524 27.1028 5.93434C27.8217 5.72942 28.5563 5.57456 29.2898 5.4267C30.2969 5.22367 31.3226 5.20932 32.3411 5.26576C33.112 5.30848 33.8816 5.43333 34.6433 5.56923C35.5719 5.73491 36.4679 6.03375 37.3342 6.4036C38.4152 6.86509 39.4299 7.44869 40.3752 8.1521C41.0325 8.64126 41.6361 9.18801 42.2073 9.77385C42.9654 10.5514 43.6182 11.4072 44.1863 12.333C44.8166 13.3602 45.3315 14.4397 45.6591 15.5977C45.8664 16.3302 46.0143 17.0804 46.1666 17.8272C46.3619 18.7855 46.3749 19.7607 46.3286 20.7308C46.2966 21.3992 46.1773 22.0639 46.0856 22.7287C45.9724 23.55 45.7297 24.3393 45.4477 25.115C44.9885 26.3779 44.3631 27.5534 43.5789 28.6476C43.0534 29.3808 42.4747 30.0661 41.8238 30.687C40.9748 31.4968 40.0484 32.2074 39.0316 32.8C38.1299 33.3255 37.1873 33.7575 36.196 34.0792C35.3573 34.3514 34.5059 34.5776 33.6239 34.6618C33.1467 34.7074 32.6691 34.7508 32.191 34.7868C31.8914 34.8094 31.5878 34.8491 31.2908 34.8244C30.5104 34.7595 29.731 34.6759 28.9542 34.5768C27.9105 34.4436 26.9172 34.1144 25.9463 33.725C24.816 33.2718 23.7568 32.6798 22.7882 31.9412C22.2803 31.554 21.8041 31.1238 21.3275 30.6975C20.369 29.84 19.6054 28.821 18.9236 27.738C18.3376 26.8074 17.8754 25.8124 17.5392 24.77C17.2975 24.0206 17.144 23.2412 16.9785 22.4693C16.8903 22.058 16.8603 21.6343 16.804 21.1961ZM41.9595 18.1167C42.6397 17.3663 42.3904 16.3878 41.622 15.9719C41.0111 15.6412 40.3902 15.3254 39.7574 15.0392C38.7354 14.5768 37.6699 14.2313 36.5789 13.9727C35.9033 13.8126 35.2223 13.6721 34.5389 13.5493C33.8869 13.4321 33.2303 13.3351 32.5725 13.2557C32.0411 13.1915 31.5055 13.1453 30.9706 13.1296C30.2509 13.1083 29.5292 13.1025 28.8099 13.1292C27.8902 13.1635 26.9715 13.2309 26.0532 13.2962C25.6876 13.3223 25.32 13.3594 24.9607 13.4295C24.2526 13.5676 23.5458 13.7175 22.846 13.8926C22.5306 13.9716 22.1887 14.0634 21.9362 14.2526C21.2897 14.7372 21.1659 15.5683 21.7312 16.2182C22.0131 16.5423 22.5779 16.7716 22.9768 16.6606C24.08 16.3534 25.1915 16.0935 26.3369 15.9992C26.911 15.952 27.4832 15.8506 28.0574 15.8406C29.0269 15.8238 29.9976 15.8488 30.9672 15.879C31.4949 15.8954 32.0228 15.9456 32.5479 16.0045C33.1797 16.0754 33.8138 16.1446 34.4377 16.2631C35.531 16.4707 36.6103 16.7399 37.6601 17.1183C38.5686 17.4459 39.4525 17.8222 40.2808 18.3249C40.8296 18.658 41.4616 18.5779 41.9595 18.1167ZM39.8216 22.8358C40.4898 22.303 40.4121 21.4129 39.7262 20.9708C39.3971 20.7586 39.0524 20.5648 38.6977 20.3994C38.0249 20.0855 37.3543 19.757 36.656 19.5103C35.8226 19.2158 34.969 18.9678 34.1093 18.7616C33.3737 18.5851 32.619 18.4824 31.869 18.3729C31.3272 18.2939 30.7797 18.2161 30.2339 18.2101C29.0363 18.1969 27.8356 18.1453 26.6432 18.327C26.192 18.3958 25.7342 18.4266 25.287 18.5139C24.6941 18.6296 24.1077 18.7798 23.5203 18.9225C23.1119 19.0217 22.7284 19.1619 22.5116 19.5694C22.3239 19.9224 22.3453 20.4468 22.5876 20.7451C22.8928 21.1209 23.2784 21.3263 23.769 21.1905C24.6993 20.9331 25.6317 20.6916 26.5978 20.6127C27.2981 20.5555 27.9983 20.4583 28.6988 20.4551C29.536 20.4513 30.3742 20.5174 31.2104 20.5754C31.6865 20.6085 32.1645 20.6591 32.6327 20.7486C33.7533 20.9626 34.8632 21.2257 35.933 21.6321C36.7836 21.9552 37.6191 22.3134 38.3913 22.8003C38.8548 23.0926 39.3151 23.1881 39.8216 22.8358ZM38.4143 26.3147C38.4837 25.8712 38.3471 25.5164 37.9523 25.285C37.0533 24.758 36.1207 24.3004 35.1356 23.9555C34.0012 23.5583 32.8401 23.2732 31.6425 23.1536C30.9784 23.0872 30.3133 23.0154 29.6469 22.9904C29.08 22.9691 28.5107 23.0114 27.9424 23.0256C27.9283 23.026 27.9142 23.0259 27.9002 23.0275C27.3972 23.0831 26.8938 23.1346 26.3916 23.196C26.042 23.2388 25.6922 23.2853 25.3458 23.3482C24.8177 23.4439 24.294 23.564 23.7655 23.6574C23.3159 23.7368 22.9076 24.2308 22.9837 24.6304C23.0908 25.1926 23.5547 25.5322 24.0779 25.4356C24.8499 25.293 25.6195 25.1333 26.3958 25.0186C27.0676 24.9193 27.746 24.8348 28.4238 24.8115C29.4027 24.7777 30.3853 24.772 31.3585 24.9295C31.9712 25.0286 32.5922 25.0944 33.1937 25.2402C34.5789 25.5759 35.8897 26.1104 37.1076 26.8557C37.5738 27.141 38.2544 26.8827 38.4143 26.3147Z" fill="white"></path>
<path d="M109.553 22.4269C109.327 23.0121 109.103 23.5809 108.877 24.1489C108.37 25.4251 107.89 26.7131 107.343 27.9723C107.026 28.7034 106.537 29.3327 105.785 29.6894C105.414 29.8649 105.019 29.9557 104.605 29.9667C103.926 29.9847 103.255 29.9585 102.613 29.7105C102.35 29.6089 102.093 29.4895 101.84 29.3665C101.737 29.3167 101.695 29.2321 101.754 29.1048C102.004 28.561 102.245 28.0131 102.488 27.4665C102.561 27.303 102.672 27.2564 102.835 27.3426C103.192 27.5316 103.568 27.6546 103.975 27.6816C104.492 27.7159 104.8 27.4334 105.079 27.0389C105.296 26.7311 105.146 26.4906 105.036 26.2249C104.621 25.2221 104.209 24.218 103.791 23.2163C103.388 22.2524 102.979 21.2915 102.575 20.3281C102.411 19.9353 102.251 19.5405 102.095 19.1442C102.033 18.9852 101.946 18.9108 101.757 18.9155C101.151 18.9304 100.545 18.921 99.9069 18.921C99.9069 19.0085 99.9069 19.0896 99.9069 19.1706C99.9069 21.6313 99.9069 24.0921 99.9068 26.5529C99.9068 26.8847 99.8724 26.9182 99.5324 26.9182C98.8696 26.9182 98.2069 26.9165 97.5441 26.9192C97.3251 26.9201 97.2354 26.8635 97.2363 26.6161C97.2443 24.1413 97.2411 21.6664 97.2411 19.1915C97.2411 19.1085 97.2411 19.0256 97.2411 18.921C96.9093 18.921 96.5942 18.9185 96.2791 18.9218C96.0302 18.9245 95.9615 18.847 95.9668 18.6233C95.9812 18.0243 95.979 17.4246 95.9678 16.8255C95.9639 16.6184 96.0542 16.5505 96.2394 16.5512C96.5632 16.5524 96.887 16.5515 97.2411 16.5515C97.2411 16.3355 97.2386 16.1271 97.2416 15.9189C97.2537 15.0785 97.4275 14.2843 97.9687 13.6157C98.3582 13.1344 98.8856 12.8434 99.4879 12.754C100.017 12.6755 100.561 12.6482 101.096 12.6712C101.51 12.6891 101.919 12.8227 102.332 12.8986C102.504 12.9302 102.53 13.0473 102.53 13.1889C102.53 13.7741 102.531 14.3594 102.53 14.9446C102.529 15.1679 102.429 15.2417 102.207 15.185C101.975 15.1255 101.746 15.0344 101.51 15.0101C101.126 14.9704 100.727 14.912 100.363 15.1063C99.9889 15.3062 99.9138 15.68 99.868 16.0553C99.8477 16.2217 99.8646 16.3928 99.8646 16.5938C99.9448 16.5938 100.019 16.5938 100.093 16.5938C101.27 16.5938 102.448 16.598 103.625 16.5898C103.83 16.5884 103.908 16.6683 103.978 16.8552C104.393 17.9679 104.827 19.0735 105.254 20.1821C105.63 21.1626 106.005 22.144 106.38 23.1251C106.431 23.259 106.481 23.3934 106.544 23.5612C106.595 23.4492 106.643 23.3634 106.675 23.2721C107.128 21.9688 107.579 20.6645 108.032 19.361C108.327 18.5114 108.625 17.6629 108.92 16.8135C108.971 16.6686 109.047 16.5874 109.223 16.5897C109.963 16.5994 110.703 16.5934 111.444 16.5941C111.7 16.5943 111.763 16.6979 111.671 16.9346C111.274 17.9517 110.88 18.97 110.486 19.9884C110.175 20.7952 109.865 21.6029 109.553 22.4269Z" fill="white"></path>
<path d="M72.1919 24.6325C71.7036 25.5218 71.0233 26.1956 70.1241 26.6368C69.5875 26.9 69.0195 27.0388 68.4196 27.0952C67.6185 27.1706 66.8608 27.0396 66.1466 26.6966C65.8277 26.5434 65.5461 26.3082 65.2596 26.094C65.1282 25.9958 65.026 25.8585 64.8716 25.6987C64.8716 25.825 64.8716 25.8921 64.8716 25.9591C64.8716 27.1718 64.8705 28.3844 64.8725 29.597C64.8729 29.8672 64.8125 29.932 64.5497 29.9269C63.859 29.9135 63.1679 29.9177 62.4771 29.9253C62.2794 29.9275 62.2028 29.8617 62.203 29.6577C62.2068 25.3783 62.2071 21.0989 62.2024 16.8195C62.2022 16.6092 62.298 16.5508 62.4793 16.5511C63.1702 16.552 63.8611 16.5502 64.552 16.5521C64.7805 16.5527 64.8688 16.6408 64.8709 16.8669C64.8737 17.1754 64.8716 17.4839 64.8716 17.8036C65.0426 17.6459 65.2012 17.4983 65.3612 17.3524C65.9224 16.8406 66.5782 16.5304 67.331 16.4236C68.2968 16.2866 69.2316 16.4002 70.1088 16.8268C70.7315 17.1296 71.2641 17.5581 71.7031 18.1063C72.3109 18.8652 72.6504 19.7269 72.7869 20.6815C72.9829 22.0537 72.8614 23.3756 72.1919 24.6325ZM70.119 21.1808C70.059 20.5066 69.7771 19.9176 69.3048 19.4581C68.7275 18.8965 68.0211 18.6287 67.1876 18.7456C66.6472 18.8214 66.1815 19.0356 65.7831 19.3901C65.0936 20.0035 64.8206 20.8147 64.7978 21.7066C64.7887 22.0654 64.8655 22.4372 64.9645 22.7856C65.127 23.3575 65.4496 23.8441 65.9276 24.2074C66.5073 24.648 67.156 24.825 67.8897 24.7229C68.6797 24.613 69.2589 24.2079 69.6883 23.5557C69.9593 23.1441 70.0974 22.6811 70.1503 22.2025C70.1859 21.8797 70.1348 21.5472 70.119 21.1808Z" fill="white"></path>
<path d="M59.8444 26.1266C59.264 26.5416 58.6299 26.8054 57.9515 26.9468C57.197 27.104 56.4342 27.1186 55.663 27.0532C54.8504 26.9842 54.0751 26.7956 53.3199 26.4982C52.5767 26.2056 51.8889 25.8203 51.2704 25.3134C51.1257 25.1949 50.9729 25.0854 50.8362 24.9584C50.7468 24.8752 50.6974 24.784 50.8116 24.6553C51.0735 24.36 51.3145 24.0464 51.5669 23.7426C51.7536 23.518 51.9489 23.3005 52.1325 23.0735C52.2408 22.9396 52.3357 22.8928 52.4938 23.0154C52.8533 23.2942 53.2131 23.5759 53.595 23.822C54.2198 24.2245 54.8996 24.5013 55.6447 24.5899C55.948 24.626 56.2546 24.6821 56.5569 24.6681C57.1372 24.6414 57.7002 24.5479 58.1889 24.1727C58.7508 23.7412 58.8625 22.6339 58.1749 22.1709C57.5705 21.7639 56.8862 21.5953 56.2015 21.4199C55.1896 21.1607 54.169 20.9286 53.2334 20.4422C52.5746 20.0997 52.0001 19.6472 51.6697 18.9689C51.5043 18.6295 51.4129 18.2458 51.3402 17.872C51.2822 17.5734 51.2809 17.2584 51.2932 16.9523C51.3299 16.0435 51.6534 15.2488 52.271 14.5723C52.9798 13.7959 53.8882 13.3984 54.8932 13.219C55.5927 13.0941 56.3024 13.1176 57.0147 13.1987C57.9535 13.3056 58.8365 13.5694 59.6608 14.0176C60.0647 14.2372 60.4403 14.5099 60.8213 14.7696C60.9915 14.8856 61.0001 15.0172 60.8769 15.1912C60.4984 15.7256 60.1187 16.2592 59.7387 16.7925C59.6152 16.9659 59.5232 16.9709 59.3417 16.8416C58.66 16.3556 57.9405 15.9355 57.1232 15.7272C56.4386 15.5528 55.7401 15.4742 55.0505 15.7071C54.6317 15.8485 54.2319 16.0524 54.0851 16.5081C53.8262 17.3114 54.0732 17.8081 54.7416 18.1511C55.3504 18.4634 56.0095 18.6354 56.6717 18.7953C57.6288 19.0264 58.5744 19.2914 59.4476 19.765C60.0863 20.1115 60.6321 20.5595 60.9754 21.2106C61.1855 21.6091 61.3236 22.0361 61.3178 22.4972C61.3148 22.7299 61.3152 22.9626 61.3176 23.1952C61.3291 24.2992 60.8655 25.1883 60.0809 25.9317C60.0106 25.9983 59.9307 26.0546 59.8444 26.1266Z" fill="white"></path>
<path d="M74.8463 25.2825C74.2421 24.6178 73.8764 23.8485 73.6724 22.9953C73.5397 22.44 73.4998 21.8727 73.5532 21.311C73.6663 20.1208 74.0975 19.0625 74.912 18.1609C75.7717 17.2092 76.8386 16.6316 78.0832 16.4398C79.2357 16.2621 80.3777 16.3648 81.4589 16.8844C82.0464 17.1667 82.5819 17.5191 83.0285 17.9833C83.807 18.7925 84.2952 19.7531 84.4681 20.8772C84.6478 22.045 84.4939 23.1574 83.9516 24.1988C83.1565 25.7254 81.8947 26.6475 80.2089 27.0099C79.6689 27.126 79.1274 27.1614 78.5865 27.1228C77.5055 27.0458 76.5091 26.7013 75.6471 26.0295C75.3641 25.8089 75.1179 25.5412 74.8463 25.2825ZM76.8461 23.6813C76.8973 23.7466 76.9436 23.8164 77.0004 23.8764C77.5747 24.4833 78.2771 24.7769 79.1161 24.7627C79.945 24.7487 80.6325 24.4454 81.1628 23.8064C81.757 23.0904 81.9632 22.2673 81.8424 21.3479C81.7424 20.5871 81.4397 19.9439 80.8536 19.4341C80.1294 18.8043 79.2882 18.6073 78.3766 18.8198C77.2243 19.0883 76.5404 19.848 76.2923 21.0038C76.0855 21.967 76.2371 22.8565 76.8461 23.6813Z" fill="white"></path>
<path d="M85.9437 22.3484C85.9437 21.2005 85.9437 20.0738 85.9437 18.921C85.6169 18.921 85.3025 18.9217 84.988 18.9208C84.7072 18.9201 84.6744 18.8868 84.6743 18.6088C84.6742 18.0096 84.6806 17.4103 84.6707 16.8113C84.6674 16.6115 84.7616 16.5515 84.9347 16.5515C85.2643 16.5515 85.5938 16.5515 85.9437 16.5515C85.9437 16.0633 85.9437 15.5931 85.9437 15.1229C85.9437 14.7775 85.949 14.432 85.9415 14.0868C85.9375 13.903 86.016 13.84 86.1938 13.8413C86.9128 13.8465 87.6319 13.8495 88.3507 13.8398C88.5694 13.8368 88.6096 13.952 88.6095 14.1262C88.6092 14.8593 88.6094 15.5924 88.6094 16.3255C88.6094 16.3944 88.6094 16.4633 88.6094 16.5515C89.1474 16.5515 89.6669 16.5515 90.1865 16.5515C90.4614 16.5515 90.7363 16.5538 91.0112 16.5507C91.1936 16.5487 91.2766 16.6334 91.276 16.8157C91.2737 17.443 91.272 18.0704 91.2768 18.6977C91.2784 18.9014 91.1457 18.9196 90.9993 18.92C90.2874 18.9222 89.5754 18.921 88.8635 18.921C88.7872 18.921 88.7108 18.921 88.6094 18.921C88.6094 19.0092 88.6094 19.0841 88.6094 19.1589C88.6094 20.6815 88.6098 22.2041 88.6091 23.7266C88.609 24.1435 88.7745 24.4586 89.1836 24.5916C89.3637 24.6501 89.5717 24.6972 89.7521 24.6653C90.128 24.5987 90.499 24.4914 90.8622 24.3712C91.1302 24.2824 91.2321 24.3276 91.2325 24.6036C91.2335 25.1745 91.2311 25.7455 91.2343 26.3165C91.2349 26.4283 91.2284 26.5197 91.1016 26.5657C90.7097 26.7078 90.3297 26.8963 89.9272 26.9906C89.5658 27.0753 89.1791 27.0959 88.8065 27.0794C88.1481 27.0502 87.5087 26.9326 86.9555 26.519C86.424 26.1216 86.1572 25.5771 86.0307 24.9516C85.8579 24.0971 85.9762 23.2302 85.9437 22.3484Z" fill="white"></path>
<path d="M94.0676 26.9182C93.5601 26.9182 93.0737 26.9192 92.5873 26.9178C92.3309 26.9171 92.2907 26.877 92.2906 26.6312C92.2905 23.3816 92.2905 20.1319 92.2906 16.8822C92.2907 16.6006 92.3385 16.5518 92.6149 16.5516C93.2916 16.5512 93.9683 16.551 94.645 16.5517C94.8997 16.552 94.9559 16.6058 94.956 16.8529C94.9564 20.1097 94.9565 23.3664 94.9559 26.6232C94.9559 26.862 94.8997 26.9163 94.6598 26.9179C94.4694 26.9193 94.2791 26.9182 94.0676 26.9182Z" fill="white"></path>
<path d="M94.9992 12.7464C95.4462 13.3471 95.3609 14.2626 94.8832 14.7914C94.5714 15.1365 94.1909 15.3342 93.7444 15.3581C93.2018 15.3871 92.7212 15.1982 92.3576 14.7755C91.8753 14.2146 91.8617 13.2757 92.2869 12.7095C92.5496 12.3597 92.8928 12.1502 93.3159 12.0673C94.0161 11.9302 94.5612 12.1935 94.9992 12.7464Z" fill="white"></path>
<path d="M112.009 18.1608C111.988 17.1975 112.934 16.3854 113.944 16.5784C114.717 16.7261 115.35 17.4712 115.267 18.3466C115.189 19.1672 114.469 19.7997 113.705 19.8144C113.244 19.8232 112.835 19.694 112.509 19.3882C112.172 19.071 111.993 18.6589 112.009 18.1608ZM114.544 19.2831C114.944 18.8886 115.155 18.4281 115.011 17.8595C114.86 17.2622 114.479 16.8749 113.871 16.7725C113.351 16.6851 112.881 16.8534 112.55 17.2686C112.173 17.7428 112.089 18.2841 112.374 18.8394C112.766 19.6054 113.771 19.8735 114.544 19.2831Z" fill="white"></path>
<path d="M113.734 17.2708C113.962 17.2676 114.157 17.3178 114.291 17.4826C114.527 17.7729 114.42 18.107 114.166 18.3004C114.075 18.3695 114.063 18.4022 114.134 18.4919C114.253 18.6421 114.355 18.8053 114.466 18.9655C114.159 19.0616 114.046 19.0251 113.886 18.7852C113.855 18.7393 113.824 18.6935 113.794 18.6475C113.634 18.4058 113.634 18.4058 113.329 18.4209C113.329 18.6056 113.329 18.7921 113.329 18.992C113.207 18.992 113.106 18.992 112.993 18.992C112.993 18.4243 112.993 17.8575 112.993 17.2708C113.238 17.2708 113.476 17.2708 113.734 17.2708ZM113.749 18.0747C113.904 18.0909 114.015 18.022 114.034 17.8718C114.052 17.7298 113.953 17.6309 113.818 17.615C113.656 17.5959 113.49 17.6105 113.329 17.6105C113.329 17.7795 113.329 17.9174 113.329 18.0747C113.462 18.0747 113.586 18.0747 113.749 18.0747Z" fill="white"></path>
</g>
<defs>
<clipPath id="clip0_2_26985">
<rect width="99.9436" height="30" fill="white" transform="translate(16 5)"></rect>
</clipPath>
</defs>
</svg>
