<svg width="175" height="40" viewBox="0 0 175 40" fill="none" xmlns="http://www.w3.org/2000/svg">
<g clip-path="url(#clip0_2_27027)">
<path d="M21.5768 13.3889C21.5768 13.2778 21.5768 13.2223 21.6324 13.1112C21.6879 13.0556 21.7435 12.9445 21.7991 12.8889C21.8546 12.8334 21.9102 12.7778 22.0213 12.7223C22.1324 12.6667 22.1879 12.6667 22.2991 12.6667H29.9102C30.0768 12.6667 30.2435 12.7223 30.4102 12.8889C30.5213 13.0001 30.6324 13.1667 30.6324 13.3889C30.6324 13.5556 30.5768 13.7223 30.4102 13.8889C30.2991 14.0001 30.1324 14.1112 29.9102 14.1112H22.2991C22.1879 14.1112 22.1324 14.1112 22.0213 14.0556C21.9657 14.0001 21.8546 13.9445 21.7991 13.8889C21.7435 13.8334 21.6879 13.7223 21.6324 13.6667C21.6324 13.5556 21.5768 13.4445 21.5768 13.3889ZM39.0213 20.8334H22.2991C22.1324 20.8334 21.9657 20.8889 21.7991 21.0556C21.6324 21.2223 21.5768 21.3334 21.5768 21.5001C21.5768 21.6667 21.6324 21.8334 21.7991 22.0001C21.9657 22.1667 22.0768 22.2223 22.2991 22.2223H39.0768C39.2435 22.2223 39.4102 22.1667 39.5768 22.0001C39.7435 21.8334 39.7991 21.7223 39.7991 21.5001C39.7991 21.3334 39.7435 21.1667 39.5768 21.0001C39.4102 20.8334 39.2435 20.8334 39.0213 20.8334ZM39.0213 24.8889H22.2991C22.1324 24.8889 21.9657 24.9445 21.7991 25.1112C21.6879 25.2223 21.5768 25.3889 21.5768 25.5556C21.5768 25.7223 21.6324 25.8889 21.7991 26.0556C21.9102 26.1667 22.0768 26.2778 22.2991 26.2778H39.0768C39.2435 26.2778 39.4102 26.2223 39.5768 26.0556C39.6879 25.9445 39.7991 25.7778 39.7991 25.5556C39.7991 25.3889 39.7435 25.2223 39.5768 25.0556C39.4102 24.9445 39.2435 24.8889 39.0213 24.8889ZM29.8546 28.9445H22.2991C22.1324 28.9445 21.9657 29.0001 21.7991 29.1667C21.6324 29.3334 21.5768 29.4445 21.5768 29.6112C21.5768 29.7778 21.6324 29.9445 21.7991 30.1112C21.9657 30.2778 22.0768 30.3334 22.2991 30.3334H29.9102C30.0768 30.3334 30.2435 30.2778 30.4102 30.1112C30.5213 30.0001 30.6324 29.8334 30.6324 29.6112C30.6324 29.4445 30.5768 29.2778 30.4102 29.1112C30.2435 29.0001 30.0213 28.9445 29.8546 28.9445ZM42.7991 9.88895C42.6879 10.7223 42.1879 12.4445 39.9102 14.4445C39.5213 14.7778 39.1324 15.0556 38.7435 15.3334L38.2435 16.9445C38.2435 16.9445 38.2435 17.0001 38.1879 17.0001L36.7435 18.0556C36.7435 18.0556 36.7435 18.0556 36.6879 18.0556H36.6324H36.5768C36.5768 18.0556 36.5768 18.0556 36.5768 18.0001L36.1879 16.3334C35.9102 16.3334 35.5768 16.3334 35.2991 16.2223L33.0213 17.9445C32.9102 18.0556 32.7435 18.1112 32.5768 18.1112H22.4102L20.4657 19.0556V19.1112C20.4657 19.5001 20.3546 19.8889 20.0768 20.1667C19.8546 20.4445 19.5213 20.6667 19.1324 20.7778C18.7435 20.8889 18.3546 20.8334 18.0213 20.6667C17.6879 20.5001 17.4102 20.2223 17.2435 19.8889C17.0768 19.5556 17.0213 19.1667 17.1324 18.7778C17.2435 18.3334 17.4657 18.0001 17.7991 17.7778C18.0768 17.5556 18.4657 17.4445 18.8546 17.4445C19.2435 17.4445 19.5768 17.6112 19.9102 17.8334L22.0213 16.8334C22.1324 16.7778 22.1879 16.7778 22.2991 16.7778H32.5213L34.5768 15.2223C34.5213 15.0001 34.5213 14.8334 34.5768 14.6112L32.9657 13.8889C32.9657 13.8889 32.9657 13.8889 32.9102 13.8334C32.9102 13.8334 32.9102 13.8334 32.9102 13.7778C32.9102 13.7778 32.9102 13.7778 32.9102 13.7223C32.9102 13.7223 32.9102 13.6667 32.9657 13.6667L34.2435 12.4445H34.2991L35.9102 12.2223C36.1879 11.8889 36.5213 11.6112 36.8546 11.3334C40.3546 8.66672 42.6879 9.33339 42.7991 9.38895C42.7991 9.38895 42.8546 9.38895 42.8546 9.4445V9.50006C42.8546 9.61117 42.8546 9.77783 42.7991 9.88895ZM39.5768 12.7223C39.5768 12.5556 39.5213 12.3889 39.4102 12.2223C39.2991 12.0556 39.1879 11.9445 39.0213 11.8889C38.8546 11.8334 38.6879 11.7778 38.5213 11.7778C38.3546 11.7778 38.1879 11.8889 38.0213 12.0001C37.8546 12.1112 37.7435 12.2778 37.6879 12.4445C37.6324 12.6112 37.6324 12.7778 37.6324 13.0001C37.6879 13.1667 37.7435 13.3334 37.8546 13.5001C37.9657 13.6112 38.1324 13.7223 38.2991 13.7778C38.4657 13.8334 38.5768 13.8334 38.7435 13.7778C38.9102 13.7223 39.0213 13.6667 39.1879 13.6112C39.2991 13.5001 39.4102 13.3889 39.4657 13.2778C39.5768 13.0556 39.5768 12.8889 39.5768 12.7223Z" fill="white"></path>
<path d="M56.1323 26.0556V28.7223H47.6879V14.3889H50.9656V26.0556H56.1323Z" fill="white"></path>
<path d="M72.2434 21.5555C72.2434 22.5555 72.0767 23.4999 71.7434 24.4444C71.4101 25.3333 70.9101 26.1111 70.2434 26.7777C69.5767 27.4444 68.799 27.9999 67.9656 28.3333C66.0212 29.0555 63.9101 29.0555 61.9656 28.3333C61.0767 27.9999 60.299 27.4444 59.6323 26.7777C58.9656 26.1111 58.4656 25.3333 58.1323 24.4444C57.799 23.4999 57.5767 22.5555 57.6323 21.5555C57.6323 20.5555 57.799 19.6111 58.1323 18.6666C58.4656 17.7777 58.9656 16.9999 59.6323 16.3333C60.299 15.6666 61.0767 15.1666 61.9101 14.7777C62.8545 14.3888 63.8545 14.2222 64.9101 14.2222C65.9101 14.2222 66.9656 14.3888 67.9101 14.7777C68.799 15.1111 69.5767 15.6666 70.1878 16.3333C70.8545 16.9999 71.3545 17.7777 71.6878 18.6666C72.0767 19.6111 72.2434 20.5555 72.2434 21.5555ZM68.9101 21.5555C68.9101 20.8888 68.8545 20.2777 68.6323 19.6666C68.4656 19.1666 68.1878 18.6666 67.8545 18.2222C67.5212 17.8333 67.0767 17.4999 66.6323 17.3333C66.0767 17.1111 65.5212 16.9999 64.9656 16.9999C64.4101 16.9999 63.799 17.1111 63.299 17.3333C62.799 17.5555 62.4101 17.8333 62.0767 18.2222C61.7434 18.6666 61.4656 19.1111 61.299 19.6666C61.1323 20.2777 61.0212 20.9444 61.0212 21.5555C61.0212 22.2222 61.0767 22.8333 61.299 23.4999C61.4656 23.9999 61.7434 24.4999 62.0767 24.9444C62.4101 25.3333 62.8545 25.6666 63.299 25.8333C63.8545 26.0555 64.4101 26.1666 64.9656 26.1666C65.5212 26.1666 66.1323 26.0555 66.6323 25.8333C67.1323 25.6111 67.5212 25.3333 67.8545 24.9444C68.1878 24.4999 68.4656 24.0555 68.6323 23.4999C68.799 22.8333 68.9101 22.2222 68.9101 21.5555Z" fill="white"></path>
<path d="M87.4101 14.3889V28.7223H85.6879C85.4657 28.7223 85.2434 28.6667 85.0768 28.6111C84.8545 28.5 84.6879 28.3889 84.5768 28.1667L77.9657 19.6111C77.9657 19.8889 78.0212 20.1111 78.0212 20.3334C78.0212 20.5556 78.0212 20.7778 78.0212 21V28.6667H75.1323V14.3889H76.8545C76.9657 14.3889 77.0768 14.3889 77.1879 14.3889C77.299 14.3889 77.3545 14.4445 77.4657 14.4445C77.5212 14.5 77.6323 14.5556 77.6879 14.6111C77.799 14.6667 77.8545 14.7778 77.9101 14.8889L84.6323 23.5C84.5768 23.2222 84.5768 22.9445 84.5768 22.7222C84.5768 22.4445 84.5768 22.2223 84.5768 22V14.3889H87.4101Z" fill="white"></path>
<path d="M97.8545 21.2777H102.855V27.3333C102.188 27.8333 101.355 28.2777 100.577 28.4999C99.7434 28.7222 98.9101 28.8888 98.0212 28.8888C96.9656 28.8888 95.8545 28.7222 94.8545 28.3333C93.9656 27.9999 93.1323 27.4444 92.4101 26.7777C91.7434 26.1111 91.1878 25.3333 90.8545 24.4444C90.4656 23.4999 90.299 22.5555 90.299 21.5555C90.299 20.5555 90.4656 19.5555 90.799 18.6111C91.1323 17.7222 91.6323 16.9444 92.299 16.2777C92.9656 15.6111 93.7434 15.1111 94.6323 14.7777C95.6323 14.3888 96.6323 14.2222 97.6878 14.2222C98.2434 14.2222 98.799 14.2777 99.3545 14.3888C99.8545 14.4999 100.299 14.6111 100.799 14.7777C101.243 14.9444 101.632 15.1666 101.966 15.3888C102.299 15.6111 102.632 15.8888 102.91 16.1666L101.966 17.6111C101.91 17.7222 101.799 17.8333 101.743 17.8888C101.632 17.9444 101.521 17.9999 101.41 18.0555C101.299 18.0555 101.132 18.0555 101.021 18.0555C100.91 17.9999 100.743 17.9444 100.688 17.8888C100.41 17.7222 100.188 17.6111 99.9656 17.4999C99.7434 17.3888 99.5212 17.2777 99.2434 17.2222C99.0212 17.1666 98.7434 17.1111 98.4656 17.0555C98.1878 16.9999 97.8545 16.9999 97.5767 16.9999C97.0212 16.9999 96.4656 17.1111 95.9101 17.3333C95.4101 17.5555 95.0212 17.8888 94.6323 18.2777C94.299 18.7222 94.0212 19.1666 93.8545 19.7222C93.6878 20.3333 93.5767 20.9444 93.5767 21.6111C93.5767 22.2777 93.6878 22.9999 93.9101 23.6111C94.0767 24.1666 94.4101 24.6666 94.799 25.1111C95.1878 25.4999 95.6323 25.8333 96.1323 26.0555C96.6878 26.2777 97.299 26.3888 97.8545 26.3888C98.1878 26.3888 98.5767 26.3333 98.9101 26.2777C99.2434 26.2222 99.5212 26.1111 99.8545 25.9444V23.7777H98.4656C98.2989 23.7777 98.1323 23.7222 97.9656 23.6111C97.9101 23.5555 97.8545 23.4999 97.8545 23.4444C97.799 23.3888 97.799 23.2777 97.799 23.2222L97.8545 21.2777Z" fill="white"></path>
<path d="M113.521 16.8333C113.466 16.9444 113.41 17 113.355 17.0555C113.299 17.1111 113.188 17.1111 113.132 17.1111C112.966 17.1111 112.855 17.0555 112.743 16.9444C112.577 16.8333 112.41 16.7222 112.188 16.5555C111.91 16.3889 111.688 16.2778 111.41 16.1667C111.021 16.0555 110.688 16 110.299 16C109.91 16 109.577 16.0555 109.188 16.1667C108.91 16.2778 108.632 16.4444 108.41 16.6111C108.188 16.7778 108.021 17.0555 107.91 17.2778C107.799 17.5555 107.743 17.8333 107.743 18.1111C107.743 18.4444 107.855 18.7778 108.021 19.1111C108.243 19.3889 108.466 19.6111 108.799 19.7778C109.132 19.9444 109.466 20.1111 109.855 20.2778L111.077 20.7222C111.466 20.8889 111.91 21.0555 112.299 21.2222C112.688 21.3889 113.021 21.6111 113.355 21.8889C113.688 22.1667 113.91 22.5 114.132 22.8889C114.355 23.3333 114.41 23.8333 114.41 24.3889C114.41 25 114.299 25.5555 114.077 26.1111C113.855 26.6667 113.577 27.1111 113.188 27.5C112.799 27.8889 112.299 28.2222 111.743 28.4444C111.132 28.6667 110.466 28.7778 109.799 28.7778C108.966 28.7778 108.132 28.6111 107.355 28.2778C106.632 27.9444 106.021 27.5 105.466 26.9444L106.021 26.0555C106.077 26 106.132 25.9444 106.188 25.8889C106.243 25.8333 106.355 25.8333 106.41 25.8333C106.521 25.8333 106.632 25.8889 106.688 25.9444C106.799 26 106.91 26.1111 107.077 26.2222C107.188 26.3333 107.355 26.4444 107.521 26.5555C107.688 26.6667 107.91 26.7778 108.132 26.8889C108.355 27 108.632 27.1111 108.91 27.1667C109.243 27.2222 109.521 27.2778 109.855 27.2778C110.243 27.2778 110.688 27.2222 111.021 27.1111C111.355 27 111.632 26.8333 111.91 26.6111C112.132 26.3889 112.355 26.1111 112.466 25.7778C112.577 25.4444 112.688 25.1111 112.632 24.7222C112.632 24.3333 112.577 24 112.355 23.6667C112.132 23.3889 111.91 23.1667 111.632 23C111.299 22.7778 110.966 22.6667 110.577 22.5555C110.188 22.4444 109.799 22.2778 109.355 22.1667C108.966 22.0555 108.521 21.8889 108.132 21.7222C107.743 21.5555 107.41 21.3333 107.077 21.0555C106.743 20.7778 106.521 20.3889 106.355 20C106.132 19.5 106.077 18.9444 106.077 18.4444C106.077 17.9444 106.188 17.4444 106.355 17C106.521 16.5555 106.799 16.1111 107.188 15.7778C107.577 15.3889 108.021 15.1111 108.521 14.8889C109.132 14.6667 109.743 14.5555 110.355 14.5555C111.077 14.5555 111.799 14.6667 112.466 14.9444C113.077 15.1667 113.688 15.5555 114.132 16L113.521 16.8333Z" fill="white"></path>
<path d="M129.132 14.6111V28.6666H127.243V22.2778H119.799V28.6666H117.91V14.6111H119.799V20.8889H127.243V14.6111H129.132Z" fill="white"></path>
<path d="M146.41 21.6667C146.41 22.6667 146.243 23.6667 145.91 24.5556C145.577 25.3889 145.132 26.1667 144.521 26.8334C143.91 27.5 143.188 28 142.355 28.3334C140.577 29.0556 138.577 29.0556 136.799 28.3334C135.966 28 135.243 27.5 134.632 26.8334C134.021 26.1667 133.521 25.3889 133.243 24.5556C132.91 23.6112 132.743 22.6667 132.743 21.6667C132.743 20.6667 132.91 19.6667 133.243 18.7778C133.577 17.9445 134.021 17.1667 134.632 16.5C135.243 15.8334 135.966 15.3334 136.799 15C138.577 14.2778 140.577 14.2778 142.355 15C143.188 15.3334 143.91 15.8334 144.521 16.5C145.132 17.1667 145.632 17.9445 145.91 18.7778C146.243 19.7223 146.41 20.6667 146.41 21.6667ZM144.466 21.6667C144.466 20.8889 144.355 20.1112 144.132 19.3334C143.91 18.6667 143.577 18.1112 143.132 17.6112C142.688 17.1112 142.188 16.7778 141.577 16.5C140.299 16 138.855 16 137.521 16.5C136.91 16.7223 136.41 17.1112 135.966 17.6112C135.521 18.1112 135.188 18.7223 134.966 19.3334C134.743 20.1112 134.632 20.8889 134.632 21.6667C134.632 22.4445 134.743 23.2223 134.966 24C135.188 24.6667 135.521 25.2223 135.966 25.7223C136.41 26.2223 136.91 26.5556 137.521 26.8334C138.799 27.3334 140.243 27.3334 141.577 26.8334C142.188 26.6112 142.688 26.2223 143.132 25.7223C143.577 25.2223 143.91 24.6112 144.132 24C144.41 23.2223 144.521 22.4445 144.466 21.6667Z" fill="white"></path>
<path d="M158.799 16.2222H154.299V28.7222H152.41V16.2222H147.91V14.6111H158.799V16.2222Z" fill="white"></path>
</g>
<defs>
<clipPath id="clip0_2_27027">
<rect width="142.222" height="30" fill="white" transform="translate(16.5768 5)"></rect>
</clipPath>
</defs>
</svg>
