<svg xmlns="http://www.w3.org/2000/svg" fill="none" viewBox="0 0 139 40" height="40" width="139">
<g clip-path="url(#clip0_1833_213712)">
<path fill="white" d="M44.4763 19.0368L45.6472 19.6371C46.1804 19.9059 46.466 20.4704 46.3612 21.0169L45.3045 26.6258C45.1903 27.2172 44.6857 27.6562 44.0574 27.71L42.3723 27.8623C42.22 28.0236 42.0582 28.1759 41.8963 28.3192C40.5159 29.5557 38.6881 30.4159 36.5936 30.9266C34.9943 31.3118 33.2426 31.5 31.4052 31.5C31.1672 31.5 30.9197 31.5 30.6817 31.491C28.2731 31.4283 26.0359 31.0251 24.1319 30.2635C22.7134 29.6991 21.4853 28.9285 20.5142 27.9429L18.7245 27.7369C18.1152 27.6652 17.6201 27.2351 17.5154 26.6617L16.4492 21.0259C16.3444 20.4704 16.63 19.9059 17.1632 19.6371L18.3341 19.0368C18.9529 16.2324 20.5618 13.7684 22.7991 11.9764C23.5226 11.403 24.3032 10.9012 25.141 10.4801V9.78126C25.141 9.19887 27.0641 8.69712 29.6916 8.5448C30.2437 8.51792 30.815 8.5 31.4052 8.5C33.0807 8.5 34.604 8.6344 35.7273 8.85839C36.9269 9.09135 37.6694 9.42287 37.6694 9.79022V10.4891C38.9165 11.1163 40.0399 11.9137 41.011 12.8634C42.7341 14.539 43.9622 16.6624 44.4763 19.0368ZM23.8654 26.6348C25.6171 27.8085 28.2256 28.4267 31.4053 28.4267C34.585 28.4267 37.1935 27.8085 38.9642 26.6348C40.6683 25.4879 41.4966 23.8393 41.4966 21.5724C41.4966 16.3399 36.9745 12.0839 31.4148 12.0839C25.8551 12.0839 21.3331 16.3399 21.3331 21.5724C21.3331 23.8393 22.1613 25.4969 23.8654 26.6348Z" clip-rule="evenodd" fill-rule="evenodd"></path>
<path fill="white" d="M31.4046 26.2407C29.4244 26.2407 27.587 25.1476 26.7207 23.4631L28.3201 22.7463C28.9008 23.8753 30.0813 24.5831 31.4046 24.5831C32.7279 24.5831 33.9179 23.8843 34.4891 22.7463L36.0884 23.4631C35.2221 25.1476 33.3848 26.2407 31.4046 26.2407Z"></path>
<path fill="white" d="M58.448 26.5122C57.5322 26.5122 56.6848 26.3449 55.9058 26.0105C55.1403 25.6632 54.5117 25.1808 54.0195 24.5633L55.5368 22.846C56.3295 23.8751 57.2793 24.3897 58.3863 24.3897C59.8761 24.3897 60.6212 23.56 60.6212 21.9006V14.9157V12.8125H63.2864V21.7655C63.2864 23.3477 62.8762 24.5376 62.0563 25.3351C61.2361 26.1198 60.0334 26.5122 58.448 26.5122Z"></path>
<path fill="white" d="M70.192 15.8997C71.8046 15.8997 73.0348 16.2662 73.8821 16.9995C74.7433 17.7198 75.174 18.8132 75.174 20.2797V26.3191H72.7546V25.0649C72.4403 25.5151 71.9894 25.8625 71.4017 26.1069C70.8274 26.3384 70.1306 26.4542 69.3104 26.4542C68.4902 26.4542 67.7726 26.3255 67.1577 26.0683C66.5428 25.7981 66.0644 25.4315 65.7226 24.9684C65.3945 24.4925 65.2305 23.9587 65.2305 23.3669C65.2305 22.4407 65.5928 21.7011 66.317 21.148C67.0551 20.582 68.2101 20.299 69.7821 20.299H72.6111V20.1446C72.6111 19.4243 72.3789 18.8711 71.914 18.4852C71.4631 18.0993 70.7865 17.9064 69.8844 17.9064C69.2695 17.9064 68.6613 17.9964 68.0598 18.1765C67.4721 18.3566 66.9732 18.6074 66.5633 18.929L65.5586 17.1731C66.1325 16.7615 66.8229 16.4463 67.6294 16.2277C68.4355 16.009 69.2899 15.8997 70.192 15.8997ZM69.8435 24.6983C70.4859 24.6983 71.0531 24.5632 71.545 24.2931C72.0508 24.0101 72.4061 23.6113 72.6111 23.0968V21.9005H69.9666C68.4902 21.9005 67.7522 22.3571 67.7522 23.2704C67.7522 23.7078 67.9367 24.0551 68.3057 24.3124C68.6747 24.5697 69.1873 24.6983 69.8435 24.6983Z"></path>
<path fill="white" d="M81.8463 26.4542C80.958 26.4542 80.0902 26.3448 79.2425 26.1261C78.3951 25.9075 77.7188 25.6309 77.2129 25.2965L78.1971 23.4634C78.6889 23.7721 79.2767 24.023 79.96 24.2159C80.6571 24.396 81.3405 24.486 82.0104 24.486C83.5411 24.486 84.3066 24.1066 84.3066 23.3476C84.3066 22.9875 84.1084 22.7366 83.7119 22.5951C83.3294 22.4536 82.7075 22.3186 81.8463 22.1899C80.9443 22.0613 80.2062 21.9134 79.6323 21.7461C79.0717 21.5789 78.5796 21.2895 78.1559 20.8778C77.7459 20.4533 77.541 19.868 77.541 19.122C77.541 18.1443 77.9714 17.3661 78.8325 16.7872C79.7074 16.1955 80.8829 15.8997 82.3589 15.8997C83.1107 15.8997 83.8625 15.9833 84.614 16.1505C85.3657 16.3049 85.981 16.5171 86.4593 16.7872L85.4751 18.6203C84.5458 18.1057 83.5002 17.8485 82.3385 17.8485C81.5867 17.8485 81.0127 17.9578 80.6162 18.1765C80.2334 18.3823 80.0422 18.6589 80.0422 19.0062C80.0422 19.3921 80.2472 19.6687 80.6571 19.8359C81.0808 19.9902 81.7303 20.1382 82.6048 20.2797C83.4797 20.4083 84.1973 20.5562 84.7575 20.7235C85.3181 20.8907 85.7964 21.1737 86.1926 21.5725C86.6026 21.9712 86.8079 22.5372 86.8079 23.2704C86.8079 24.2352 86.3634 25.007 85.4751 25.5859C84.5868 26.1648 83.3771 26.4542 81.8463 26.4542Z"></path>
<path fill="white" d="M95.0822 15.8997C96.1484 15.8997 97.0984 16.1183 97.932 16.5557C98.7794 16.993 99.4423 17.6105 99.9207 18.408C100.399 19.2056 100.638 20.1253 100.638 21.1673C100.638 22.2092 100.399 23.1354 99.9207 23.9458C99.4423 24.7433 98.7794 25.3608 97.932 25.7981C97.0984 26.2355 96.1484 26.4542 95.0822 26.4542C93.6062 26.4542 92.4374 25.9911 91.5766 25.0649V30.0624H89.0137V16.0154H91.4535V17.3661C91.8772 16.8773 92.3965 16.5107 93.0117 16.2662C93.6404 16.0218 94.3305 15.8997 95.0822 15.8997ZM94.7951 24.3896C95.7384 24.3896 96.5107 24.0937 97.1118 23.502C97.7271 22.9103 98.0344 22.132 98.0344 21.1673C98.0344 20.2025 97.7271 19.4243 97.1118 18.8325C96.5107 18.2408 95.7384 17.945 94.7951 17.945C94.1802 17.945 93.6267 18.08 93.1345 18.3501C92.6424 18.6074 92.2529 18.9805 91.9661 19.4693C91.6789 19.9581 91.5354 20.5241 91.5354 21.1673C91.5354 21.8104 91.6789 22.3764 91.9661 22.8652C92.2529 23.3541 92.6424 23.7335 93.1345 24.0037C93.6267 24.2609 94.1802 24.3896 94.7951 24.3896Z"></path>
<path fill="white" d="M113.36 21.2251C113.36 21.3924 113.346 21.6303 113.319 21.9391H104.729C104.879 22.698 105.269 23.3026 105.897 23.7528C106.54 24.1902 107.333 24.4089 108.276 24.4089C109.478 24.4089 110.469 24.0358 111.248 23.2898L112.622 24.7755C112.13 25.3286 111.508 25.7467 110.756 26.0297C110.005 26.3127 109.157 26.4542 108.214 26.4542C107.011 26.4542 105.952 26.2291 105.036 25.7788C104.12 25.3286 103.41 24.7047 102.904 23.9072C102.412 23.0968 102.166 22.1835 102.166 21.1673C102.166 20.1639 102.405 19.2635 102.884 18.4659C103.376 17.6555 104.052 17.0252 104.913 16.575C105.774 16.1248 106.745 15.8997 107.825 15.8997C108.891 15.8997 109.84 16.1248 110.674 16.575C111.522 17.0123 112.178 17.6362 112.642 18.4466C113.121 19.2442 113.36 20.1703 113.36 21.2251ZM107.825 17.8292C107.004 17.8292 106.307 18.0607 105.733 18.5238C105.173 18.974 104.831 19.5786 104.708 20.3376H110.92C110.811 19.5915 110.476 18.9869 109.916 18.5238C109.355 18.0607 108.658 17.8292 107.825 17.8292Z"></path>
<path fill="white" d="M118.262 17.5204C119 16.4399 120.298 15.8997 122.157 15.8997V18.1958C121.938 18.1572 121.74 18.1379 121.563 18.1379C120.565 18.1379 119.786 18.4145 119.226 18.9676C118.665 19.5079 118.385 20.2925 118.385 21.3216V26.3191H115.822V16.0154H118.262V17.5204Z"></path>
</g>
<defs>
<clipPath id="clip0_1833_213712">
<rect transform="translate(16.4277 8.5)" fill="white" height="23" width="106"></rect>
</clipPath>
</defs>
</svg>
