<svg width="171" height="40" viewBox="0 0 171 40" fill="none" xmlns="http://www.w3.org/2000/svg">
<g clip-path="url(#clip0_2_27059)">
<path fill-rule="evenodd" clip-rule="evenodd" d="M16.7917 17.9515L30.2705 25.7091L43.9674 17.7818L30.3917 10L16.7917 17.9515ZM22.6341 19.4545L23.2402 19.7697L33.9311 13.6364L33.2765 13.2485L22.6341 19.4545ZM20.8402 18.5091L20.2341 18.1939L30.8765 11.9636L31.5311 12.3515L20.8402 18.5091ZM24.719 20.7152L25.325 21.0303L36.0159 14.897L35.3614 14.5091L24.719 20.7152ZM27.5068 22.3394L26.9008 22.0242L37.5432 15.8182L38.1977 16.2061L27.5068 22.3394ZM29.0826 23.2848L29.7129 23.6242L38.6826 18.4606L38.0281 18.0727L29.0826 23.2848Z" fill="white"></path>
<path d="M60.9856 17.297C60.622 16.7637 60.1614 16.3273 59.6038 16.0121C58.9977 15.6485 58.2947 15.4788 57.5917 15.4788C56.8644 15.4546 56.1371 15.5758 55.4583 15.8667C54.8523 16.1334 54.2947 16.5212 53.8341 17.0061C53.3735 17.5152 53.0341 18.097 52.8159 18.7273C52.5735 19.4303 52.4523 20.1576 52.4765 20.8849C52.4765 21.6121 52.5977 22.3637 52.8159 23.0424C53.0341 23.6727 53.3735 24.2788 53.8341 24.7637C54.2947 25.2485 54.828 25.6364 55.4583 25.903C56.1371 26.194 56.8644 26.3152 57.5917 26.2909C58.2947 26.3152 58.9977 26.1212 59.6038 25.7576C60.1614 25.4424 60.622 25.0061 60.9856 24.4727L62.5614 25.6606C61.9311 26.4121 61.1553 27.0182 60.2583 27.4303C59.4098 27.794 58.5129 28.0121 57.5917 28.0364C56.5735 28.0606 55.5553 27.8909 54.5856 27.5273C53.7371 27.1879 52.9614 26.6788 52.3068 26.0243C51.6765 25.3697 51.1674 24.594 50.8765 23.7455C50.5371 22.8243 50.3917 21.8546 50.3917 20.8849C50.3917 19.9152 50.5371 18.9455 50.8765 18.0243C51.1917 17.1758 51.6765 16.4 52.3068 15.7455C52.9614 15.0909 53.7371 14.5818 54.5856 14.2424C55.5311 13.8788 56.5492 13.7091 57.5917 13.7334C58.5129 13.7576 59.4098 13.9515 60.2583 14.3394C61.1553 14.7515 61.9311 15.3576 62.5614 16.1091L60.9856 17.297Z" fill="white"></path>
<path d="M74.1493 19.3576V19.0182C74.1493 16.6667 72.9856 15.503 70.6584 15.503C69.1068 15.4788 67.6281 16.0606 66.4887 17.103L65.325 15.7454C66.6099 14.4364 68.525 13.7576 71.0947 13.7576C71.7493 13.7576 72.3796 13.8545 73.0099 14.0485C73.5917 14.2182 74.1493 14.5333 74.6099 14.9454C75.0705 15.3576 75.4341 15.8667 75.6765 16.4485C75.9674 17.1273 76.1129 17.8545 76.0887 18.6061V24.6909C76.0887 25.2242 76.1129 25.7576 76.1614 26.3394C76.2099 26.9212 76.2584 27.3818 76.3311 27.7454H74.4644C74.4159 27.4303 74.3674 27.0667 74.3432 26.6788C74.319 26.2909 74.2947 25.903 74.2947 25.5394H74.2462C73.7856 26.3636 73.0826 27.0424 72.2584 27.503C71.3856 27.9151 70.4159 28.1333 69.4462 28.1091C68.8644 28.1091 68.2584 28.0364 67.7008 27.8667C67.1674 27.7212 66.6584 27.4545 66.1977 27.1151C65.7614 26.7757 65.3978 26.3394 65.1553 25.8545C64.8887 25.3212 64.7432 24.7151 64.7674 24.1091C64.7674 22.9939 65.0584 22.1454 65.6159 21.5151C66.1977 20.8848 66.9493 20.4 67.7735 20.1091C68.6705 19.7939 69.5917 19.6 70.5371 19.5273C71.5068 19.4545 72.4038 19.4061 73.2281 19.4061L74.1493 19.3576ZM73.1553 20.9333C72.6705 20.9333 72.0644 20.9576 71.3371 21.0061C70.6341 21.0545 69.9311 21.1757 69.2523 21.3454C68.622 21.5151 68.0402 21.8061 67.5311 22.1939C67.0462 22.5818 66.7796 23.1879 66.8281 23.7939C66.8281 24.2061 66.9008 24.5939 67.0947 24.9333C67.2644 25.2485 67.5311 25.5151 67.8462 25.7091C68.1614 25.903 68.5008 26.0727 68.8887 26.1454C69.2765 26.2424 69.6402 26.2667 70.0281 26.2667C70.6584 26.2909 71.2644 26.1697 71.8462 25.9273C72.8402 25.4909 73.5917 24.6424 73.9068 23.5757C74.0765 23.0182 74.1493 22.4606 74.1493 21.8788V20.8848H73.1553V20.9333Z" fill="white"></path>
<path d="M87.1432 17.3212C86.8765 16.7879 86.4644 16.3273 85.9796 15.9879C85.4462 15.6485 84.8402 15.4788 84.2099 15.503C83.8705 15.503 83.5311 15.5515 83.2159 15.6243C82.9008 15.697 82.5856 15.8182 82.2947 15.9879C82.028 16.1333 81.8099 16.3515 81.6402 16.6182C81.4705 16.9091 81.3735 17.2243 81.3978 17.5394C81.3978 18.194 81.6159 18.6546 82.0765 18.9455C82.7068 19.3091 83.3856 19.5515 84.0887 19.697L86.0281 20.1576C86.925 20.3515 87.7493 20.7879 88.4038 21.4424C89.0341 22.097 89.3735 22.9697 89.3493 23.8667C89.3735 24.5212 89.2281 25.1758 88.9129 25.7576C88.622 26.2909 88.2099 26.7273 87.725 27.0667C87.2159 27.4061 86.6341 27.6727 86.0281 27.8182C85.3978 27.9637 84.7432 28.0606 84.0887 28.0606C83.0705 28.0606 82.0765 27.8667 81.1553 27.4546C80.2099 27.0182 79.3856 26.2909 78.8523 25.394L80.5008 24.2546C80.8644 24.8606 81.3735 25.3697 81.9796 25.7334C82.6099 26.1212 83.3371 26.3152 84.0887 26.2909C84.4765 26.2909 84.8644 26.2424 85.2523 26.1697C85.6159 26.097 85.9553 25.9515 86.2947 25.7576C86.5856 25.5879 86.8281 25.3455 87.022 25.0546C87.2159 24.7394 87.3129 24.4 87.2887 24.0364C87.3371 23.4546 87.0462 22.8727 86.5371 22.5576C85.9553 22.2182 85.3493 22 84.6947 21.8546L82.8281 21.4182C82.5856 21.3697 82.2705 21.2727 81.8826 21.1273C81.4705 20.9818 81.0826 20.7879 80.719 20.5212C80.3311 20.2303 79.9917 19.8667 79.7493 19.4546C79.4584 18.9697 79.3129 18.4121 79.3371 17.8303C79.3129 17.2 79.4584 16.5697 79.7493 15.9879C80.0159 15.4788 80.4038 15.0424 80.8887 14.703C81.3735 14.3637 81.9311 14.1212 82.5129 13.9515C83.119 13.7818 83.7493 13.7091 84.3796 13.7091C85.3008 13.7091 86.1977 13.8788 87.022 14.2667C87.8462 14.6546 88.525 15.3333 88.9129 16.1576L87.1432 17.3212Z" fill="white"></path>
<path d="M93.6644 21.4182C93.7129 22.0727 93.8826 22.7272 94.1493 23.3333C94.6584 24.4969 95.6038 25.4181 96.7675 25.9272C97.3735 26.1939 98.0038 26.3151 98.6584 26.3151C99.6038 26.3394 100.525 26.0969 101.325 25.6121C102.004 25.2 102.586 24.6424 103.022 23.9636L104.501 25.1757C103.798 26.1212 102.877 26.8727 101.81 27.3818C100.816 27.8181 99.7493 28.0606 98.6584 28.0606C97.6887 28.0606 96.7432 27.8909 95.8463 27.5272C94.9978 27.1878 94.2463 26.6788 93.616 26.0242C92.9857 25.3697 92.4766 24.5939 92.1372 23.7454C91.7735 22.8485 91.5796 21.8788 91.6038 20.8848C91.6038 19.9151 91.7735 18.9454 92.1372 18.0242C92.4766 17.1757 92.9614 16.4 93.5917 15.7454C94.222 15.1151 94.9493 14.606 95.7735 14.2424C96.622 13.8788 97.5432 13.6848 98.4887 13.7091C99.4341 13.6848 100.38 13.8788 101.252 14.2666C102.028 14.606 102.731 15.1151 103.313 15.7454C103.871 16.3757 104.307 17.103 104.574 17.903C104.864 18.7515 105.01 19.6485 105.01 20.5454V21.4182H93.6644ZM102.925 19.8424C102.925 18.5575 102.537 17.4909 101.761 16.6909C100.986 15.8909 99.8947 15.4788 98.5129 15.4788C97.8826 15.4788 97.2766 15.6 96.719 15.8424C96.1614 16.0606 95.6281 16.4 95.1917 16.8121C94.7553 17.2 94.416 17.6848 94.1493 18.2182C93.9069 18.7272 93.7614 19.2848 93.7614 19.8424H102.925Z" fill="white"></path>
<path d="M115.313 15.8424H111.386V23.8667C111.386 24.2788 111.434 24.6909 111.531 25.103C111.604 25.3697 111.725 25.6364 111.919 25.8546C112.089 26.0243 112.307 26.1455 112.549 26.2182C112.816 26.2909 113.083 26.3152 113.349 26.3152C113.689 26.3152 114.028 26.2667 114.367 26.1697C114.707 26.0727 115.022 25.9515 115.337 25.7818L115.434 27.5515C114.61 27.8909 113.737 28.0606 112.84 28.0364C112.452 28.0364 112.064 27.9879 111.701 27.8909C111.289 27.7939 110.925 27.6 110.61 27.3333C110.246 27.0424 109.98 26.6546 109.786 26.2424C109.543 25.6606 109.446 25.0303 109.47 24.4V15.8424H106.586V14.097H109.47V10.2424H111.386V14.097H115.313V15.8424Z" fill="white"></path>
<path d="M118.925 21.4182C118.974 22.0727 119.143 22.7272 119.41 23.3333C119.919 24.4969 120.864 25.4181 122.028 25.9272C122.634 26.1939 123.264 26.3151 123.919 26.3151C124.864 26.3394 125.786 26.0969 126.586 25.6121C127.264 25.2 127.846 24.6424 128.283 23.9636L129.761 25.1757C129.058 26.1212 128.137 26.8727 127.071 27.3818C126.077 27.8181 125.01 28.0606 123.919 28.0606C122.949 28.0606 122.004 27.8909 121.107 27.5272C120.258 27.1878 119.507 26.6788 118.877 26.0242C118.246 25.3697 117.737 24.5939 117.398 23.7454C117.034 22.8485 116.84 21.8788 116.864 20.8848C116.864 19.9151 117.034 18.9454 117.398 18.0242C117.737 17.1757 118.222 16.4 118.852 15.7454C119.483 15.1151 120.21 14.606 121.034 14.2424C121.883 13.8788 122.804 13.6848 123.749 13.7091C124.695 13.6848 125.64 13.8788 126.513 14.2666C127.289 14.606 127.992 15.1151 128.574 15.7454C129.131 16.3757 129.567 17.103 129.834 17.903C130.125 18.7515 130.271 19.6485 130.271 20.5454V21.4182H118.925ZM128.161 19.8424C128.161 18.5575 127.774 17.4909 126.998 16.6909C126.222 15.8909 125.131 15.4788 123.749 15.4788C123.119 15.4788 122.513 15.6 121.955 15.8424C121.398 16.0606 120.864 16.4 120.428 16.8121C119.992 17.2 119.652 17.6848 119.386 18.2182C119.119 18.7272 118.998 19.2848 118.998 19.8424H128.161Z" fill="white"></path>
<path d="M136.525 20.4243L131.58 14.0728H134.198L137.98 19.1637L141.592 14.0728H143.967L139.216 20.4243L144.913 27.697H142.295L137.737 21.7334L133.349 27.697H130.901L136.525 20.4243Z" fill="white"></path>
<path d="M154.634 15.8424H150.707V23.8667C150.707 24.2788 150.755 24.6909 150.852 25.103C150.925 25.3697 151.07 25.6364 151.264 25.8546C151.434 26.0243 151.652 26.1455 151.895 26.2182C152.161 26.2909 152.428 26.3152 152.695 26.3152C153.034 26.3152 153.374 26.2667 153.713 26.1697C154.052 26.0727 154.367 25.9515 154.683 25.7818L154.78 27.5515C153.955 27.8909 153.083 28.0606 152.186 28.0364C151.798 28.0364 151.41 27.9879 151.046 27.8909C150.634 27.7939 150.27 27.6 149.955 27.3333C149.592 27.0424 149.325 26.6546 149.131 26.2424C148.889 25.6606 148.792 25.0303 148.816 24.4V15.8424H145.931V14.097H148.816V10.2424H150.731V14.097H154.658L154.634 15.8424Z" fill="white"></path>
<path d="M43.9432 20.9818L30.4887 28.7394C30.3432 28.8364 30.1493 28.8364 30.0038 28.7636L16.7917 21.1515L17.9311 20.5697L30.2462 27.6L42.8523 20.3273L43.9432 20.9818Z" fill="white"></path>
<path d="M43.9432 24.1333L30.4887 31.8909C30.3432 31.9879 30.1493 31.9879 30.0038 31.9151L16.7917 24.303L17.9311 23.7212L30.2462 30.7515L42.8523 23.4788L43.9432 24.1333Z" fill="white"></path>
</g>
<defs>
<clipPath id="clip0_2_27059">
<rect width="138.424" height="24" fill="white" transform="translate(16.4038 10)"></rect>
</clipPath>
</defs>
</svg>
